<mxfile host="app.diagrams.net" modified="2023-11-29T14:15:11.081Z" agent="Mozilla/5.0 (Windows NT 10.0; Win64; x64) AppleWebKit/537.36 (KHTML, like Gecko) Chrome/119.0.0.0 Safari/537.36" etag="o--eYdU8F78fPvE4KWSD" version="22.1.4" type="github">
  <diagram id="C5RBs43oDa-KdzZeNtuy" name="Page-1">
    <mxGraphModel dx="10829" dy="8156" grid="1" gridSize="10" guides="1" tooltips="1" connect="1" arrows="1" fold="1" page="1" pageScale="1" pageWidth="827" pageHeight="1169" math="0" shadow="0">
      <root>
        <mxCell id="WIyWlLk6GJQsqaUBKTNV-0" />
        <mxCell id="WIyWlLk6GJQsqaUBKTNV-1" parent="WIyWlLk6GJQsqaUBKTNV-0" />
        <mxCell id="7sSd0tKmP4TyFzPP-oEi-8" value="User" style="html=1;overflow=block;blockSpacing=1;swimlane;childLayout=stackLayout;horizontal=1;horizontalStack=0;resizeParent=1;resizeParentMax=0;resizeLast=0;collapsible=0;fontStyle=0;marginBottom=0;swimlaneFillColor=#ffffff;startSize=25;whiteSpace=wrap;fontSize=16.7;fontColor=#3a414a;align=left;spacing=0;strokeColor=#3a414a;strokeOpacity=100;rounded=1;absoluteArcSize=1;arcSize=9;strokeWidth=0.8;" vertex="1" parent="WIyWlLk6GJQsqaUBKTNV-1">
          <mxGeometry x="-4485" y="-2273" width="315" height="382.75" as="geometry" />
        </mxCell>
        <mxCell id="7sSd0tKmP4TyFzPP-oEi-9" value="- name : int&#xa;- emaildId : String&#xa;- mobileNumber : String&#xa;- password : String&#xa;- userId : int" style="part=1;html=1;resizeHeight=0;strokeColor=none;fillColor=none;align=left;verticalAlign=middle;spacingLeft=4;spacingRight=4;overflow=hidden;rotatable=0;points=[[0,0.5],[1,0.5]];portConstraint=eastwest;swimlaneFillColor=#ffffff;strokeOpacity=100;whiteSpace=wrap;fontSize=13.3;fontColor=#3a414a;" vertex="1" parent="7sSd0tKmP4TyFzPP-oEi-8">
          <mxGeometry y="25" width="315" height="168" as="geometry" />
        </mxCell>
        <mxCell id="7sSd0tKmP4TyFzPP-oEi-10" value="" style="line;strokeWidth=1;fillColor=none;align=left;verticalAlign=middle;spacingTop=-1;spacingLeft=3;spacingRight=3;rotatable=0;labelPosition=right;points=[];portConstraint=eastwest;" vertex="1" parent="7sSd0tKmP4TyFzPP-oEi-8">
          <mxGeometry y="193" width="315" height="8" as="geometry" />
        </mxCell>
        <mxCell id="7sSd0tKmP4TyFzPP-oEi-11" value="+ setName(name : String ) : void&#xa;+ setEmailId(emailId : String) : void&#xa;+ setMobileNumber(mobileNumber : String ) : void&#xa;+ setPassword(password : String ) : void&#xa;+ setUserId(userId : int ) : void&#xa;+ getUserId() : String&#xa;+ getName() : String&#xa;+ getEmailId() : String&#xa;+ getMobileNumber() : String&#xa;+ getPassword() : String&#xa;+ hashcode() : int&#xa;+ equals(object : Object) : boolean" style="part=1;html=1;resizeHeight=0;strokeColor=none;fillColor=none;align=left;verticalAlign=middle;spacingLeft=4;spacingRight=4;overflow=hidden;rotatable=0;points=[[0,0.5],[1,0.5]];portConstraint=eastwest;swimlaneFillColor=#ffffff;strokeOpacity=100;whiteSpace=wrap;fontSize=13.1;fontColor=#3a414a;" vertex="1" parent="7sSd0tKmP4TyFzPP-oEi-8">
          <mxGeometry y="201" width="315" height="181.75" as="geometry" />
        </mxCell>
        <mxCell id="7sSd0tKmP4TyFzPP-oEi-12" value="Cart" style="html=1;overflow=block;blockSpacing=1;swimlane;childLayout=stackLayout;horizontal=1;horizontalStack=0;resizeParent=1;resizeParentMax=0;resizeLast=0;collapsible=0;fontStyle=0;marginBottom=0;swimlaneFillColor=#ffffff;startSize=25;whiteSpace=wrap;fontSize=16.7;fontColor=#3a414a;align=left;spacing=0;strokeColor=#3a414a;strokeOpacity=100;rounded=1;absoluteArcSize=1;arcSize=9;strokeWidth=0.8;" vertex="1" parent="WIyWlLk6GJQsqaUBKTNV-1">
          <mxGeometry x="-4095" y="-2550" width="270" height="263.25" as="geometry" />
        </mxCell>
        <mxCell id="7sSd0tKmP4TyFzPP-oEi-13" value="- cartItems :  List&amp;lt;Product&amp;gt; &#xa;- totalAmountInCart : float &#xa;- id : int&#xa;- user : User" style="part=1;html=1;resizeHeight=0;strokeColor=none;fillColor=none;align=left;verticalAlign=middle;spacingLeft=4;spacingRight=4;overflow=hidden;rotatable=0;points=[[0,0.5],[1,0.5]];portConstraint=eastwest;swimlaneFillColor=#ffffff;strokeOpacity=100;whiteSpace=wrap;fontSize=13.1;fontColor=#3a414a;" vertex="1" parent="7sSd0tKmP4TyFzPP-oEi-12">
          <mxGeometry y="25" width="270" height="110" as="geometry" />
        </mxCell>
        <mxCell id="7sSd0tKmP4TyFzPP-oEi-14" value="" style="line;strokeWidth=1;fillColor=none;align=left;verticalAlign=middle;spacingTop=-1;spacingLeft=3;spacingRight=3;rotatable=0;labelPosition=right;points=[];portConstraint=eastwest;" vertex="1" parent="7sSd0tKmP4TyFzPP-oEi-12">
          <mxGeometry y="135" width="270" height="8" as="geometry" />
        </mxCell>
        <mxCell id="7sSd0tKmP4TyFzPP-oEi-15" value="&lt;div style=&quot;display: flex; justify-content: center; text-align: center; align-items: baseline; font-size: 0; line-height: 1.25;margin-top: -2px;&quot;&gt;&lt;span&gt;&lt;span style=&quot;font-size:13.3px;color:#3a414a;&quot;&gt;+ Cart(user : User) &#xa;&lt;/span&gt;&lt;span style=&quot;font-size:13.1px;color:#3a414a;&quot;&gt;+ addItemToCart(item : Product)&#xa;+ removeItemFromCart(item : Product)&#xa;+ getCartItems() : List&amp;lt;Product&amp;gt; &lt;/span&gt;&lt;span style=&quot;font-size:16.7px;color:#3a414a;&quot;&gt;&#xa;&lt;/span&gt;&lt;span style=&quot;font-size:13.1px;color:#3a414a;&quot;&gt;+ getTotalAmount() : float&#xa;+ setId(id : int) : void&lt;/span&gt;&lt;/span&gt;&lt;/div&gt;" style="part=1;html=1;resizeHeight=0;strokeColor=none;fillColor=none;align=left;verticalAlign=middle;spacingLeft=4;spacingRight=4;overflow=hidden;rotatable=0;points=[[0,0.5],[1,0.5]];portConstraint=eastwest;swimlaneFillColor=#ffffff;strokeOpacity=100;whiteSpace=wrap;fontSize=13.3;fontColor=#3a414a;" vertex="1" parent="7sSd0tKmP4TyFzPP-oEi-12">
          <mxGeometry y="143" width="270" height="120.25" as="geometry" />
        </mxCell>
        <mxCell id="7sSd0tKmP4TyFzPP-oEi-16" value="Wishlist" style="html=1;overflow=block;blockSpacing=1;swimlane;childLayout=stackLayout;horizontal=1;horizontalStack=0;resizeParent=1;resizeParentMax=0;resizeLast=0;collapsible=0;fontStyle=0;marginBottom=0;swimlaneFillColor=#ffffff;startSize=25;whiteSpace=wrap;fontSize=16.7;fontColor=#3a414a;align=left;spacing=0;strokeColor=#3a414a;strokeOpacity=100;rounded=1;absoluteArcSize=1;arcSize=9;strokeWidth=0.8;" vertex="1" parent="WIyWlLk6GJQsqaUBKTNV-1">
          <mxGeometry x="-3870" y="-2176" width="270" height="232.25" as="geometry" />
        </mxCell>
        <mxCell id="7sSd0tKmP4TyFzPP-oEi-17" value="- wishlistItems :  List&amp;lt;Product&amp;gt; &#xa;- id : int&#xa;- user : User" style="part=1;html=1;resizeHeight=0;strokeColor=none;fillColor=none;align=left;verticalAlign=middle;spacingLeft=4;spacingRight=4;overflow=hidden;rotatable=0;points=[[0,0.5],[1,0.5]];portConstraint=eastwest;swimlaneFillColor=#ffffff;strokeOpacity=100;whiteSpace=wrap;fontSize=13.1;fontColor=#3a414a;" vertex="1" parent="7sSd0tKmP4TyFzPP-oEi-16">
          <mxGeometry y="25" width="270" height="95" as="geometry" />
        </mxCell>
        <mxCell id="7sSd0tKmP4TyFzPP-oEi-18" value="" style="line;strokeWidth=1;fillColor=none;align=left;verticalAlign=middle;spacingTop=-1;spacingLeft=3;spacingRight=3;rotatable=0;labelPosition=right;points=[];portConstraint=eastwest;" vertex="1" parent="7sSd0tKmP4TyFzPP-oEi-16">
          <mxGeometry y="120" width="270" height="8" as="geometry" />
        </mxCell>
        <mxCell id="7sSd0tKmP4TyFzPP-oEi-19" value="&lt;div style=&quot;display: flex; justify-content: center; text-align: center; align-items: baseline; font-size: 0; line-height: 1.25;margin-top: -2px;&quot;&gt;&lt;span&gt;&lt;span style=&quot;font-size:13.3px;color:#3a414a;&quot;&gt;+ Wishlist(user : User) &#xa;&lt;/span&gt;&lt;span style=&quot;font-size:13.1px;color:#3a414a;&quot;&gt;+ addItemToWishlist(item : Product)&#xa;+ removeItemFromWishlist(item : Product)&#xa;+ getWishlistItems() : List&amp;lt;Product&amp;gt; &#xa;+ setId(id : int) : void&lt;/span&gt;&lt;/span&gt;&lt;/div&gt;" style="part=1;html=1;resizeHeight=0;strokeColor=none;fillColor=none;align=left;verticalAlign=middle;spacingLeft=4;spacingRight=4;overflow=hidden;rotatable=0;points=[[0,0.5],[1,0.5]];portConstraint=eastwest;swimlaneFillColor=#ffffff;strokeOpacity=100;whiteSpace=wrap;fontSize=13.3;fontColor=#3a414a;" vertex="1" parent="7sSd0tKmP4TyFzPP-oEi-16">
          <mxGeometry y="128" width="270" height="104.25" as="geometry" />
        </mxCell>
        <mxCell id="7sSd0tKmP4TyFzPP-oEi-20" value="Order" style="html=1;overflow=block;blockSpacing=1;swimlane;childLayout=stackLayout;horizontal=1;horizontalStack=0;resizeParent=1;resizeParentMax=0;resizeLast=0;collapsible=0;fontStyle=0;marginBottom=0;swimlaneFillColor=#ffffff;startSize=25;whiteSpace=wrap;fontSize=16.7;fontColor=#3a414a;align=left;spacing=0;strokeColor=#3a414a;strokeOpacity=100;rounded=1;absoluteArcSize=1;arcSize=9;strokeWidth=0.8;" vertex="1" parent="WIyWlLk6GJQsqaUBKTNV-1">
          <mxGeometry x="-3510" y="-2295" width="315" height="249.25" as="geometry" />
        </mxCell>
        <mxCell id="7sSd0tKmP4TyFzPP-oEi-21" value="&lt;div style=&quot;display: flex; justify-content: center; text-align: center; align-items: baseline; font-size: 0; line-height: 1.25;margin-top: -2px;&quot;&gt;&lt;span&gt;&lt;span style=&quot;font-size:13.3px;&quot;&gt;- orderId : int&#xa;- address : String&#xa;- paymentMode : String&lt;/span&gt;&lt;span style=&quot;font-size:15px;&quot;&gt;&#xa;&lt;/span&gt;&lt;span style=&quot;font-size:13.1px;&quot;&gt;- orders :List&amp;lt;Product&amp;gt; &lt;/span&gt;&lt;/span&gt;&lt;/div&gt;" style="part=1;html=1;resizeHeight=0;strokeColor=none;fillColor=none;align=left;verticalAlign=middle;spacingLeft=4;spacingRight=4;overflow=hidden;rotatable=0;points=[[0,0.5],[1,0.5]];portConstraint=eastwest;swimlaneFillColor=#ffffff;strokeOpacity=100;whiteSpace=wrap;fontSize=13.3;" vertex="1" parent="7sSd0tKmP4TyFzPP-oEi-20">
          <mxGeometry y="25" width="315" height="103" as="geometry" />
        </mxCell>
        <mxCell id="7sSd0tKmP4TyFzPP-oEi-22" value="" style="line;strokeWidth=1;fillColor=none;align=left;verticalAlign=middle;spacingTop=-1;spacingLeft=3;spacingRight=3;rotatable=0;labelPosition=right;points=[];portConstraint=eastwest;" vertex="1" parent="7sSd0tKmP4TyFzPP-oEi-20">
          <mxGeometry y="128" width="315" height="8" as="geometry" />
        </mxCell>
        <mxCell id="7sSd0tKmP4TyFzPP-oEi-23" value="&lt;div style=&quot;display: flex; justify-content: center; text-align: center; align-items: baseline; font-size: 0; line-height: 1.25;margin-top: -2px;&quot;&gt;&lt;span&gt;&lt;span style=&quot;font-size:13.3px;&quot;&gt;+ Order()&lt;/span&gt;&lt;span style=&quot;font-size:16.7px;&quot;&gt;&#xa;&lt;/span&gt;&lt;span style=&quot;font-size:13.1px;&quot;&gt;+ placeOrder( items :  List&amp;lt;Product&amp;gt;, address : String) : boolean&#xa;+ getPaymentMode() : String&#xa;+ getOrders() : List&amp;lt;Product&amp;gt; &lt;/span&gt;&lt;/span&gt;&lt;/div&gt;" style="part=1;resizeHeight=0;strokeColor=none;fillColor=none;align=left;verticalAlign=middle;spacingLeft=4;spacingRight=4;rotatable=0;points=[[0,0.5],[1,0.5]];portConstraint=eastwest;swimlaneFillColor=#ffffff;strokeOpacity=100;whiteSpace=wrap;overflow=block;blockSpacing=1;html=1;fontSize=13;" vertex="1" parent="7sSd0tKmP4TyFzPP-oEi-20">
          <mxGeometry y="136" width="315" height="113.25" as="geometry" />
        </mxCell>
        <mxCell id="7sSd0tKmP4TyFzPP-oEi-24" value="AuthenticationView" style="html=1;overflow=block;blockSpacing=1;swimlane;childLayout=stackLayout;horizontal=1;horizontalStack=0;resizeParent=1;resizeParentMax=0;resizeLast=0;collapsible=0;fontStyle=0;marginBottom=0;swimlaneFillColor=#ffffff;startSize=25;whiteSpace=wrap;fontSize=16.7;fontColor=#3a414a;align=left;spacing=0;strokeColor=#3a414a;strokeOpacity=100;rounded=1;absoluteArcSize=1;arcSize=9;strokeWidth=0.8;" vertex="1" parent="WIyWlLk6GJQsqaUBKTNV-1">
          <mxGeometry x="-3487" y="-3450" width="330" height="298" as="geometry" />
        </mxCell>
        <mxCell id="7sSd0tKmP4TyFzPP-oEi-25" value="&lt;div style=&quot;display: flex; justify-content: center; text-align: center; align-items: baseline; font-size: 0; line-height: 1.25;margin-top: -2px;&quot;&gt;&lt;span&gt;&lt;span style=&quot;font-size:13.1px;text-decoration: underline;&quot;&gt;&lt;span style=&quot;font-size:13.1px;text-decoration: underline;&quot;&gt;- &lt;/span&gt;&lt;span style=&quot;font-size:13.1px;font-style: italic;text-decoration: underline;&quot;&gt;SCANNER : Scanner&#xa;&lt;/span&gt;&lt;span style=&quot;font-size:13.1px;text-decoration: underline;&quot;&gt;- &lt;/span&gt;&lt;span style=&quot;font-size:13.1px;font-style: italic;text-decoration: underline;&quot;&gt;USER_VIEW : &lt;/span&gt;&lt;span style=&quot;font-size:13.1px;text-decoration: underline;&quot;&gt;UserView&lt;/span&gt;&lt;span style=&quot;font-size:13.1px;font-style: italic;text-decoration: underline;&quot;&gt;&#xa;&lt;/span&gt;&lt;span style=&quot;font-size:13.1px;font-style: italic;text-decoration: underline;&quot;&gt;- authenticationViewInstance : &lt;/span&gt;AuthenticationView &lt;/span&gt;&lt;/span&gt;&lt;/div&gt;" style="part=1;html=1;resizeHeight=0;strokeColor=none;fillColor=none;align=left;verticalAlign=middle;spacingLeft=4;spacingRight=4;overflow=hidden;rotatable=0;points=[[0,0.5],[1,0.5]];portConstraint=eastwest;swimlaneFillColor=#ffffff;strokeOpacity=100;whiteSpace=wrap;fontSize=13.1;fontStyle=6;" vertex="1" parent="7sSd0tKmP4TyFzPP-oEi-24">
          <mxGeometry y="25" width="330" height="103" as="geometry" />
        </mxCell>
        <mxCell id="7sSd0tKmP4TyFzPP-oEi-26" value="" style="line;strokeWidth=1;fillColor=none;align=left;verticalAlign=middle;spacingTop=-1;spacingLeft=3;spacingRight=3;rotatable=0;labelPosition=right;points=[];portConstraint=eastwest;" vertex="1" parent="7sSd0tKmP4TyFzPP-oEi-24">
          <mxGeometry y="128" width="330" height="8" as="geometry" />
        </mxCell>
        <mxCell id="7sSd0tKmP4TyFzPP-oEi-27" value="&lt;div style=&quot;display: flex; justify-content: center; text-align: center; align-items: baseline; font-size: 0; line-height: 1.25;margin-top: -2px;&quot;&gt;&lt;span&gt;&lt;span style=&quot;font-size:13.1px;&quot;&gt;&lt;span style=&quot;font-size:13.1px;&quot;&gt;- AuthenticationView()&#xa;&lt;/span&gt;&lt;span style=&quot;font-size:13.1px;text-decoration: underline;&quot;&gt;+ getInstance() : AuthenticationView &lt;/span&gt;&#xa;+ showAuthenticationPage() : void&lt;/span&gt;&lt;/span&gt;&lt;/div&gt;" style="part=1;resizeHeight=0;strokeColor=none;fillColor=none;align=left;verticalAlign=middle;spacingLeft=4;spacingRight=4;rotatable=0;points=[[0,0.5],[1,0.5]];portConstraint=eastwest;swimlaneFillColor=#ffffff;strokeOpacity=100;whiteSpace=wrap;overflow=block;blockSpacing=1;html=1;fontSize=13;" vertex="1" parent="7sSd0tKmP4TyFzPP-oEi-24">
          <mxGeometry y="136" width="330" height="162" as="geometry" />
        </mxCell>
        <mxCell id="7sSd0tKmP4TyFzPP-oEi-28" value="WishlistView" style="html=1;overflow=block;blockSpacing=1;swimlane;childLayout=stackLayout;horizontal=1;horizontalStack=0;resizeParent=1;resizeParentMax=0;resizeLast=0;collapsible=0;fontStyle=0;marginBottom=0;swimlaneFillColor=#ffffff;startSize=25;whiteSpace=wrap;fontSize=16.7;fontColor=#3a414a;align=left;spacing=0;strokeColor=#3a414a;strokeOpacity=100;rounded=1;absoluteArcSize=1;arcSize=9;strokeWidth=0.8;" vertex="1" parent="WIyWlLk6GJQsqaUBKTNV-1">
          <mxGeometry x="-2430" y="-4005" width="345" height="398.375" as="geometry" />
        </mxCell>
        <mxCell id="7sSd0tKmP4TyFzPP-oEi-29" value="&lt;div style=&quot;display: flex; justify-content: center; text-align: center; align-items: baseline; font-size: 0; line-height: 1.25;margin-top: -2px;&quot;&gt;&lt;span&gt;&lt;span style=&quot;font-size:11.4px;&quot;&gt;&lt;span style=&quot;font-size:11.4px;&quot;&gt;- &lt;/span&gt;&lt;span style=&quot;font-size:11.4px;font-style: italic;text-decoration: underline;&quot;&gt;WISHLIST_CONTROLLER : &lt;/span&gt;WishlistController&lt;/span&gt;&lt;span style=&quot;font-size:13.1px;text-decoration: underline;&quot;&gt;&#xa;&lt;/span&gt;&lt;span style=&quot;font-size:13.1px;&quot;&gt;- &lt;/span&gt;&lt;span style=&quot;font-size:13.1px;font-style: italic;text-decoration: underline;&quot;&gt;CART_VIEW : &lt;/span&gt;&lt;span style=&quot;font-size:13.1px;text-decoration: underline;&quot;&gt;CartView&#xa;-&lt;/span&gt;&amp;lt;span style=&quot;font-size:13px;&quot;&amp;gt;-&lt;/span&gt;&lt;span style=&quot;font-size:13.1px;&quot;&gt;-&lt;/span&gt;&lt;span style=&quot;font-size:13.1px;font-style: italic;text-decoration: underline;&quot;&gt;wishlistViewInstance : &lt;/span&gt;&lt;span style=&quot;font-size:13.1px;text-decoration: underline;&quot;&gt;WishlistView&#xa;- scanner : Scanner  &lt;/span&gt;&amp;lt;span style=&quot;font-size:13px;&quot;&amp;gt;&#xa;- scanner : Scanner  &lt;/span&gt;&lt;span style=&quot;font-size:13.1px;&quot;&gt;&#xa;- scanner : Scanner  &lt;/span&gt;&lt;/span&gt;&lt;/div&gt;" style="part=1;html=1;resizeHeight=0;strokeColor=none;fillColor=none;align=left;verticalAlign=middle;spacingLeft=4;spacingRight=4;overflow=hidden;rotatable=0;points=[[0,0.5],[1,0.5]];portConstraint=eastwest;swimlaneFillColor=#ffffff;strokeOpacity=100;whiteSpace=wrap;fontSize=13.1;fontStyle=6;" vertex="1" parent="7sSd0tKmP4TyFzPP-oEi-28">
          <mxGeometry y="25" width="345" height="145" as="geometry" />
        </mxCell>
        <mxCell id="7sSd0tKmP4TyFzPP-oEi-30" value="" style="line;strokeWidth=1;fillColor=none;align=left;verticalAlign=middle;spacingTop=-1;spacingLeft=3;spacingRight=3;rotatable=0;labelPosition=right;points=[];portConstraint=eastwest;" vertex="1" parent="7sSd0tKmP4TyFzPP-oEi-28">
          <mxGeometry y="170" width="345" height="8" as="geometry" />
        </mxCell>
        <mxCell id="7sSd0tKmP4TyFzPP-oEi-31" value="&lt;div style=&quot;display: flex; justify-content: center; text-align: center; align-items: baseline; font-size: 0; line-height: 1.25;margin-top: -2px;&quot;&gt;&lt;span&gt;&lt;span style=&quot;font-size:16.7px;&quot;&gt;- &lt;/span&gt;&lt;span style=&quot;font-size:13.1px;&quot;&gt;&lt;span style=&quot;font-size:13.1px;&quot;&gt;WishlistView()&#xa;+&lt;/span&gt;&lt;span style=&quot;font-size:13.1px;text-decoration: underline;&quot;&gt;getInstance() : WishlistView &lt;/span&gt;&lt;span style=&quot;font-size:13.1px;&quot;&gt;&#xa;+ viewWishlist(user : User) : void&lt;/span&gt;&lt;span style=&quot;font-size:13.1px;color:#cf8e6d;&quot;&gt;&#xa;&lt;/span&gt;&lt;span style=&quot;font-size:13.1px;&quot;&gt;+ addItemToWishlist(item : Product, user : User) : void&#xa;- removeItemFromWishlist(user : User) : void&#xa;- getProductIdFromUser() : int&lt;/span&gt;&lt;span style=&quot;font-size:13.1px;color:#cf8e6d;&quot;&gt; &lt;/span&gt;&lt;/span&gt;&lt;/span&gt;&lt;/div&gt;" style="part=1;resizeHeight=0;strokeColor=none;fillColor=none;align=left;verticalAlign=middle;spacingLeft=4;spacingRight=4;rotatable=0;points=[[0,0.5],[1,0.5]];portConstraint=eastwest;swimlaneFillColor=#ffffff;strokeOpacity=100;whiteSpace=wrap;overflow=block;blockSpacing=1;html=1;fontSize=13;" vertex="1" parent="7sSd0tKmP4TyFzPP-oEi-28">
          <mxGeometry y="178" width="345" height="220.375" as="geometry" />
        </mxCell>
        <mxCell id="7sSd0tKmP4TyFzPP-oEi-32" value="UserView" style="html=1;overflow=block;blockSpacing=1;swimlane;childLayout=stackLayout;horizontal=1;horizontalStack=0;resizeParent=1;resizeParentMax=0;resizeLast=0;collapsible=0;fontStyle=0;marginBottom=0;swimlaneFillColor=#ffffff;startSize=25;whiteSpace=wrap;fontSize=16.7;fontColor=#3a414a;align=left;spacing=0;strokeColor=#3a414a;strokeOpacity=100;rounded=1;absoluteArcSize=1;arcSize=9;strokeWidth=0.8;" vertex="1" parent="WIyWlLk6GJQsqaUBKTNV-1">
          <mxGeometry x="-3480" y="-3060" width="315" height="427.25" as="geometry" />
        </mxCell>
        <mxCell id="7sSd0tKmP4TyFzPP-oEi-33" value="&lt;div style=&quot;display: flex; justify-content: center; text-align: center; align-items: baseline; font-size: 0; line-height: 1.25;margin-top: -2px;&quot;&gt;&lt;span&gt;&lt;span style=&quot;font-size:13.1px;&quot;&gt;&lt;span style=&quot;font-size:13.1px;&quot;&gt;- &lt;/span&gt;&lt;span style=&quot;font-size:13.1px;font-style: italic;text-decoration: underline;&quot;&gt;SCANNER : &lt;/span&gt;Scanner &lt;/span&gt;&lt;span style=&quot;font-size:13.1px;&quot;&gt;&#xa;- &lt;/span&gt;&lt;span style=&quot;font-size:13.1px;font-style: italic;text-decoration: underline;&quot;&gt;USER_CONTROLLER &lt;/span&gt;&lt;span style=&quot;font-size:13.1px;text-decoration: underline;&quot;&gt;:UserController &lt;/span&gt;&lt;span style=&quot;font-size:13.1px;font-style: italic;text-decoration: underline;&quot;&gt;&#xa;&lt;/span&gt;&lt;span style=&quot;font-size:13.1px;font-style: italic;&quot;&gt;- &lt;/span&gt;&lt;span style=&quot;font-size:13.1px;font-style: italic;text-decoration: underline;&quot;&gt;CART_CONTROLLER : &lt;/span&gt;&lt;span style=&quot;font-size:13.1px;text-decoration: underline;&quot;&gt;CartController  &#xa;- &lt;/span&gt;&lt;span style=&quot;font-size:13.1px;font-style: italic;text-decoration: underline;&quot;&gt;WISHLIST_CONTROLLER : &lt;/span&gt;&lt;span style=&quot;font-size:13.1px;text-decoration: underline;&quot;&gt;WishlistController&#xa;&lt;/span&gt;&lt;span style=&quot;font-size:13.1px;font-style: italic;&quot;&gt;&lt;span style=&quot;font-size:13.1px;font-style: italic;&quot;&gt;- &lt;/span&gt;&lt;span style=&quot;font-size:13.1px;font-style: italic;text-decoration: underline;&quot;&gt;ORDER_CONTROLLER : &lt;/span&gt;OrderController&lt;/span&gt;&lt;span style=&quot;font-size:13.1px;&quot;&gt;  &#xa;- &lt;/span&gt;&lt;span style=&quot;font-size:13.1px;font-style: italic;text-decoration: underline;&quot;&gt;HOME_PAGE_VIEW  : &lt;/span&gt;&lt;span style=&quot;font-size:13.1px;text-decoration: underline;&quot;&gt;HomePageView&#xa;- &lt;/span&gt;&amp;lt;span style=&quot;font-size:13px;&quot;&amp;gt;&#xa;- &lt;/span&gt;&lt;span style=&quot;font-size:13.1px;&quot;&gt;&#xa;- &lt;/span&gt;&lt;span style=&quot;font-size:13.1px;font-style: italic;text-decoration: underline;&quot;&gt;AUTHENTICATION_VIEW:  &lt;/span&gt;&lt;span style=&quot;font-size:13.1px;text-decoration: underline;&quot;&gt;AuthenticationView&#xa;&lt;/span&gt;&lt;span style=&quot;font-size:13.1px;font-style: italic;&quot;&gt;&lt;span style=&quot;font-size:13.1px;font-style: italic;&quot;&gt;- &lt;/span&gt;&lt;span style=&quot;font-size:13.1px;font-style: italic;text-decoration: underline;&quot;&gt;USER_DATA_VALIDATOR &lt;/span&gt;: UserDataValidator&lt;/span&gt;&lt;span style=&quot;font-size:13.1px;&quot;&gt; &#xa;- &lt;/span&gt;&lt;span style=&quot;font-size:13.1px;font-style: italic;&quot;&gt;userViewInstance&lt;/span&gt;&lt;span style=&quot;font-size:13.1px;&quot;&gt;: UserView&lt;/span&gt;&lt;/span&gt;&lt;/div&gt;" style="part=1;html=1;resizeHeight=0;strokeColor=none;fillColor=none;align=left;verticalAlign=middle;spacingLeft=4;spacingRight=4;overflow=hidden;rotatable=0;points=[[0,0.5],[1,0.5]];portConstraint=eastwest;swimlaneFillColor=#ffffff;strokeOpacity=100;whiteSpace=wrap;fontSize=13.1;fontStyle=6;" vertex="1" parent="7sSd0tKmP4TyFzPP-oEi-32">
          <mxGeometry y="25" width="315" height="193" as="geometry" />
        </mxCell>
        <mxCell id="7sSd0tKmP4TyFzPP-oEi-34" value="" style="line;strokeWidth=1;fillColor=none;align=left;verticalAlign=middle;spacingTop=-1;spacingLeft=3;spacingRight=3;rotatable=0;labelPosition=right;points=[];portConstraint=eastwest;" vertex="1" parent="7sSd0tKmP4TyFzPP-oEi-32">
          <mxGeometry y="218" width="315" height="8" as="geometry" />
        </mxCell>
        <mxCell id="7sSd0tKmP4TyFzPP-oEi-35" value="&lt;div style=&quot;display: flex; justify-content: center; text-align: center; align-items: baseline; font-size: 0; line-height: 1.25;margin-top: -2px;&quot;&gt;&lt;span&gt;&lt;span style=&quot;font-size:16.7px;color:#3a414a;&quot;&gt;&lt;span style=&quot;font-size:16.7px;color:#3a414a;&quot;&gt;- UserView()&#xa;&lt;/span&gt;&lt;span style=&quot;font-size:16.7px;color:#3a414a;text-decoration: underline;&quot;&gt;+ getInstance() : UserView&#xa;&lt;/span&gt;&lt;span style=&quot;font-size:13.1px;&quot;&gt;&lt;span style=&quot;font-size:13.1px;&quot;&gt;+ createNewUser() : boolean &#xa;+ validateUser(): boolean &#xa;+ viewAndEditProfile(user : User) : void&#xa;- updateUserDetails(user : User) : void&#xa;- getName() : String&#xa;&lt;/span&gt;&lt;span style=&quot;font-size:13.1px;&quot;&gt;- getPassword() : String&#xa;- getEmailId() : String&#xa;- getPassword() : String- &#xa;- get.mobileNumber() : String&lt;/span&gt;&lt;/span&gt;&lt;/span&gt;&lt;/span&gt;&lt;/div&gt;" style="part=1;resizeHeight=0;strokeColor=none;fillColor=none;align=left;verticalAlign=middle;spacingLeft=4;spacingRight=4;rotatable=0;points=[[0,0.5],[1,0.5]];portConstraint=eastwest;swimlaneFillColor=#ffffff;strokeOpacity=100;whiteSpace=wrap;overflow=block;blockSpacing=1;html=1;fontSize=13;" vertex="1" parent="7sSd0tKmP4TyFzPP-oEi-32">
          <mxGeometry y="226" width="315" height="201.25" as="geometry" />
        </mxCell>
        <mxCell id="7sSd0tKmP4TyFzPP-oEi-36" value="CartView" style="html=1;overflow=block;blockSpacing=1;swimlane;childLayout=stackLayout;horizontal=1;horizontalStack=0;resizeParent=1;resizeParentMax=0;resizeLast=0;collapsible=0;fontStyle=0;marginBottom=0;swimlaneFillColor=#ffffff;startSize=25;whiteSpace=wrap;fontSize=16.7;fontColor=#3a414a;align=left;spacing=0;strokeColor=#3a414a;strokeOpacity=100;rounded=1;absoluteArcSize=1;arcSize=9;strokeWidth=0.8;" vertex="1" parent="WIyWlLk6GJQsqaUBKTNV-1">
          <mxGeometry x="-1845" y="-4020" width="345" height="460.5" as="geometry" />
        </mxCell>
        <mxCell id="7sSd0tKmP4TyFzPP-oEi-37" value="&lt;div style=&quot;display: flex; justify-content: center; text-align: center; align-items: baseline; font-size: 0; line-height: 1.25;margin-top: -2px;&quot;&gt;&lt;span&gt;&lt;span style=&quot;font-size:13.1px;font-style: italic;&quot;&gt;- cartViewInstance : &lt;/span&gt;&lt;span style=&quot;font-size:13.1px;&quot;&gt;CartView &lt;/span&gt;&lt;span style=&quot;font-size:13.1px;font-style: italic;&quot;&gt;&#xa;&lt;/span&gt;&lt;span style=&quot;font-size:13.1px;font-style: italic;text-decoration: underline;&quot;&gt;- CART_CONTROLLER : &lt;/span&gt;&lt;span style=&quot;font-size:13.1px;text-decoration: underline;&quot;&gt;CartController &lt;/span&gt;&lt;span style=&quot;font-size:13.1px;&quot;&gt;&lt;span style=&quot;font-size:13.1px;&quot;&gt;&#xa;&lt;/span&gt;&lt;span style=&quot;font-size:13.1px;text-decoration: underline;&quot;&gt;&lt;span style=&quot;font-size:13.1px;text-decoration: underline;&quot;&gt;- &lt;/span&gt;&lt;span style=&quot;font-size:13.1px;font-style: italic;text-decoration: underline;&quot;&gt;ORDER_CONTROLLER : &lt;/span&gt;OrderController&lt;/span&gt;&lt;span style=&quot;font-size:13.1px;font-style: italic;&quot;&gt;&#xa;&lt;/span&gt;- scanner : Scanner&lt;/span&gt;&lt;/span&gt;&lt;/div&gt;" style="part=1;html=1;resizeHeight=0;strokeColor=none;fillColor=none;align=left;verticalAlign=middle;spacingLeft=4;spacingRight=4;overflow=hidden;rotatable=0;points=[[0,0.5],[1,0.5]];portConstraint=eastwest;swimlaneFillColor=#ffffff;strokeOpacity=100;whiteSpace=wrap;fontSize=13.1;fontStyle=6;" vertex="1" parent="7sSd0tKmP4TyFzPP-oEi-36">
          <mxGeometry y="25" width="345" height="168" as="geometry" />
        </mxCell>
        <mxCell id="7sSd0tKmP4TyFzPP-oEi-38" value="" style="line;strokeWidth=1;fillColor=none;align=left;verticalAlign=middle;spacingTop=-1;spacingLeft=3;spacingRight=3;rotatable=0;labelPosition=right;points=[];portConstraint=eastwest;" vertex="1" parent="7sSd0tKmP4TyFzPP-oEi-36">
          <mxGeometry y="193" width="345" height="8" as="geometry" />
        </mxCell>
        <mxCell id="7sSd0tKmP4TyFzPP-oEi-39" value="&lt;div style=&quot;display: flex; justify-content: center; text-align: center; align-items: baseline; font-size: 0; line-height: 1.25;margin-top: -2px;&quot;&gt;&lt;span&gt;&lt;span style=&quot;font-size:13.3px;&quot;&gt;&lt;span style=&quot;font-size:13.3px;&quot;&gt;- CartView()&#xa;&lt;/span&gt;&lt;span style=&quot;font-size:13.3px;text-decoration: underline;&quot;&gt;+ getInstance() : CartView&#xa;&lt;/span&gt;&lt;span style=&quot;font-size:13.1px;&quot;&gt;+ viewCart(user : User) : void&#xa;+ addToCart(item : Product , user : User)&#xa;+ removeItemFromCart(user : User )&#xa;- getProductIdFromUser() : int&#xa;- placeOrder(cartItems : List&amp;lt;Product&amp;gt; , user : User ) : void&lt;/span&gt;&lt;/span&gt;&lt;/span&gt;&lt;/div&gt;" style="part=1;resizeHeight=0;strokeColor=none;fillColor=none;align=left;verticalAlign=middle;spacingLeft=4;spacingRight=4;rotatable=0;points=[[0,0.5],[1,0.5]];portConstraint=eastwest;swimlaneFillColor=#ffffff;strokeOpacity=100;whiteSpace=wrap;overflow=block;blockSpacing=1;html=1;fontSize=13;" vertex="1" parent="7sSd0tKmP4TyFzPP-oEi-36">
          <mxGeometry y="201" width="345" height="259.5" as="geometry" />
        </mxCell>
        <mxCell id="7sSd0tKmP4TyFzPP-oEi-40" value="" style="html=1;jettySize=18;whiteSpace=wrap;overflow=block;blockSpacing=1;fontSize=13;strokeColor=#3a414a;strokeOpacity=100;strokeWidth=0.8;rounded=1;arcSize=12;edgeStyle=orthogonalEdgeStyle;startArrow=none;endArrow=diamond;endFill=0;endSize=16;exitX=-0.001;exitY=0.5;exitPerimeter=0;entryX=1.001;entryY=0.34;entryPerimeter=0;lucidId=HNFRmIGbVs-g;" edge="1" parent="WIyWlLk6GJQsqaUBKTNV-1" source="7sSd0tKmP4TyFzPP-oEi-12" target="7sSd0tKmP4TyFzPP-oEi-8">
          <mxGeometry width="100" height="100" relative="1" as="geometry">
            <Array as="points" />
          </mxGeometry>
        </mxCell>
        <mxCell id="7sSd0tKmP4TyFzPP-oEi-41" value="" style="html=1;jettySize=18;whiteSpace=wrap;overflow=block;blockSpacing=1;fontSize=13;strokeColor=#3a414a;strokeOpacity=100;strokeWidth=0.8;rounded=1;arcSize=12;edgeStyle=orthogonalEdgeStyle;startArrow=none;endArrow=diamond;endFill=0;endSize=16;exitX=-0.001;exitY=0.603;exitPerimeter=0;entryX=1.001;entryY=0.807;entryPerimeter=0;lucidId=fPFRTF55vg9Z;" edge="1" parent="WIyWlLk6GJQsqaUBKTNV-1" source="7sSd0tKmP4TyFzPP-oEi-16" target="7sSd0tKmP4TyFzPP-oEi-8">
          <mxGeometry width="100" height="100" relative="1" as="geometry">
            <Array as="points" />
          </mxGeometry>
        </mxCell>
        <mxCell id="7sSd0tKmP4TyFzPP-oEi-42" value="" style="html=1;jettySize=18;whiteSpace=wrap;overflow=block;blockSpacing=1;fontSize=13;strokeColor=#3a414a;strokeOpacity=100;strokeWidth=0.8;rounded=1;arcSize=12;edgeStyle=orthogonalEdgeStyle;startArrow=none;endArrow=diamond;endFill=1;endSize=16;exitX=-0.001;exitY=0.126;exitPerimeter=0;entryX=1.001;entryY=0.177;entryPerimeter=0;lucidId=-VFRP1HDjDhr;" edge="1" parent="WIyWlLk6GJQsqaUBKTNV-1" source="7sSd0tKmP4TyFzPP-oEi-32" target="7sSd0tKmP4TyFzPP-oEi-12">
          <mxGeometry width="100" height="100" relative="1" as="geometry">
            <Array as="points" />
          </mxGeometry>
        </mxCell>
        <mxCell id="7sSd0tKmP4TyFzPP-oEi-43" value="" style="html=1;jettySize=18;whiteSpace=wrap;overflow=block;blockSpacing=1;fontSize=13;strokeColor=#3a414a;strokeOpacity=100;strokeWidth=0.8;rounded=1;arcSize=12;edgeStyle=orthogonalEdgeStyle;startArrow=none;endArrow=diamond;endFill=1;endSize=16;exitX=-0.001;exitY=0.346;exitPerimeter=0;entryX=0.892;entryY=-0.002;entryPerimeter=0;lucidId=eWFRj9m75Z_i;" edge="1" parent="WIyWlLk6GJQsqaUBKTNV-1" source="7sSd0tKmP4TyFzPP-oEi-32" target="7sSd0tKmP4TyFzPP-oEi-16">
          <mxGeometry width="100" height="100" relative="1" as="geometry">
            <Array as="points" />
          </mxGeometry>
        </mxCell>
        <mxCell id="7sSd0tKmP4TyFzPP-oEi-44" value="" style="html=1;jettySize=18;whiteSpace=wrap;overflow=block;blockSpacing=1;fontSize=13;strokeColor=#3a414a;strokeOpacity=100;strokeWidth=0.8;rounded=1;arcSize=12;edgeStyle=orthogonalEdgeStyle;startArrow=none;endArrow=diamond;endFill=1;endSize=16;exitX=0.19;exitY=1.001;exitPerimeter=0;entryX=0.5;entryY=-0.002;entryPerimeter=0;lucidId=iWFR-srSkoov;" edge="1" parent="WIyWlLk6GJQsqaUBKTNV-1" source="7sSd0tKmP4TyFzPP-oEi-32" target="7sSd0tKmP4TyFzPP-oEi-20">
          <mxGeometry width="100" height="100" relative="1" as="geometry">
            <Array as="points" />
          </mxGeometry>
        </mxCell>
        <mxCell id="7sSd0tKmP4TyFzPP-oEi-45" value="" style="html=1;jettySize=18;whiteSpace=wrap;overflow=block;blockSpacing=1;fontSize=13;strokeColor=#3a414a;strokeOpacity=100;strokeWidth=0.8;rounded=1;arcSize=12;edgeStyle=orthogonalEdgeStyle;startArrow=open;endArrow=open;exitX=0.5;exitY=-0.001;exitPerimeter=0;entryX=0.5;entryY=1.002;entryPerimeter=0;lucidId=LZFRwG_nJtKq;" edge="1" parent="WIyWlLk6GJQsqaUBKTNV-1" source="7sSd0tKmP4TyFzPP-oEi-32" target="7sSd0tKmP4TyFzPP-oEi-24">
          <mxGeometry width="100" height="100" relative="1" as="geometry">
            <Array as="points" />
          </mxGeometry>
        </mxCell>
        <mxCell id="7sSd0tKmP4TyFzPP-oEi-46" value="UserController" style="html=1;overflow=block;blockSpacing=1;swimlane;childLayout=stackLayout;horizontal=1;horizontalStack=0;resizeParent=1;resizeParentMax=0;resizeLast=0;collapsible=0;fontStyle=0;marginBottom=0;swimlaneFillColor=#ffffff;startSize=25;whiteSpace=wrap;fontSize=16.7;fontColor=#3a414a;align=left;spacing=0;strokeColor=#3a414a;strokeOpacity=100;rounded=1;absoluteArcSize=1;arcSize=9;strokeWidth=0.8;" vertex="1" parent="WIyWlLk6GJQsqaUBKTNV-1">
          <mxGeometry x="-3060" y="-3360" width="330" height="238" as="geometry" />
        </mxCell>
        <mxCell id="7sSd0tKmP4TyFzPP-oEi-47" value="&lt;div style=&quot;display: flex; justify-content: center; text-align: center; align-items: baseline; font-size: 0; line-height: 1.25;margin-top: -2px;&quot;&gt;&lt;span&gt;&lt;span style=&quot;font-size:13.3px;text-decoration: underline;&quot;&gt;&lt;span style=&quot;font-size:13.3px;text-decoration: underline;&quot;&gt;- &lt;/span&gt;&lt;span style=&quot;font-size:13.3px;font-style: italic;text-decoration: underline;&quot;&gt;userControllerInstance&lt;/span&gt;&lt;span style=&quot;font-size:13.3px;text-decoration: underline;&quot;&gt; : UserController &#xa;- &lt;/span&gt;&lt;span style=&quot;font-size:13.3px;font-style: italic;text-decoration: underline;&quot;&gt;USER_SERVICE : &lt;/span&gt; UserService &lt;/span&gt;&lt;/span&gt;&lt;/div&gt;" style="part=1;html=1;resizeHeight=0;strokeColor=none;fillColor=none;align=left;verticalAlign=middle;spacingLeft=4;spacingRight=4;overflow=hidden;rotatable=0;points=[[0,0.5],[1,0.5]];portConstraint=eastwest;swimlaneFillColor=#ffffff;strokeOpacity=100;whiteSpace=wrap;fontSize=13.3;fontStyle=6;" vertex="1" parent="7sSd0tKmP4TyFzPP-oEi-46">
          <mxGeometry y="25" width="330" height="93" as="geometry" />
        </mxCell>
        <mxCell id="7sSd0tKmP4TyFzPP-oEi-48" value="" style="line;strokeWidth=1;fillColor=none;align=left;verticalAlign=middle;spacingTop=-1;spacingLeft=3;spacingRight=3;rotatable=0;labelPosition=right;points=[];portConstraint=eastwest;" vertex="1" parent="7sSd0tKmP4TyFzPP-oEi-46">
          <mxGeometry y="118" width="330" height="8" as="geometry" />
        </mxCell>
        <mxCell id="7sSd0tKmP4TyFzPP-oEi-49" value="&lt;div style=&quot;display: flex; justify-content: center; text-align: center; align-items: baseline; font-size: 0; line-height: 1.25;margin-top: -2px;&quot;&gt;&lt;span&gt;&lt;span style=&quot;font-size:13.3px;color:#3a414a;&quot;&gt;- UserController()&#xa;&lt;/span&gt;&lt;span style=&quot;font-size:13.3px;&quot;&gt;+ &lt;/span&gt;&lt;span style=&quot;font-size:13.3px;text-decoration: underline;&quot;&gt;getInstance() : UserController&lt;/span&gt;&lt;span style=&quot;font-size:9.7px;text-decoration: underline;&quot;&gt;&#xa;&lt;/span&gt;&lt;span style=&quot;font-size:13.3px;&quot;&gt;&lt;span style=&quot;font-size:13.3px;&quot;&gt;+ createUser(user : User ) : boolean &lt;/span&gt;&lt;span style=&quot;font-size:13.3px;text-decoration: underline;&quot;&gt;&#xa;&lt;/span&gt;+ getExistingUser(mobileNumber : String, password : String ) : User &lt;/span&gt;&lt;/span&gt;&lt;/div&gt;" style="part=1;resizeHeight=0;strokeColor=none;fillColor=none;align=left;verticalAlign=middle;spacingLeft=4;spacingRight=4;rotatable=0;points=[[0,0.5],[1,0.5]];portConstraint=eastwest;swimlaneFillColor=#ffffff;strokeOpacity=100;whiteSpace=wrap;overflow=block;blockSpacing=1;html=1;fontSize=13;" vertex="1" parent="7sSd0tKmP4TyFzPP-oEi-46">
          <mxGeometry y="126" width="330" height="112" as="geometry" />
        </mxCell>
        <mxCell id="7sSd0tKmP4TyFzPP-oEi-50" value="CartController" style="html=1;overflow=block;blockSpacing=1;swimlane;childLayout=stackLayout;horizontal=1;horizontalStack=0;resizeParent=1;resizeParentMax=0;resizeLast=0;collapsible=0;fontStyle=0;marginBottom=0;swimlaneFillColor=#ffffff;startSize=25;whiteSpace=wrap;fontSize=16.7;fontColor=#3a414a;align=left;spacing=0;strokeColor=#3a414a;strokeOpacity=100;rounded=1;absoluteArcSize=1;arcSize=9;strokeWidth=0.8;" vertex="1" parent="WIyWlLk6GJQsqaUBKTNV-1">
          <mxGeometry x="-3015" y="-3120" width="285" height="223.5" as="geometry" />
        </mxCell>
        <mxCell id="7sSd0tKmP4TyFzPP-oEi-51" value="&lt;div style=&quot;display: flex; justify-content: center; text-align: center; align-items: baseline; font-size: 0; line-height: 1.25;margin-top: -2px;&quot;&gt;&lt;span&gt;&lt;span style=&quot;font-size:16.7px;color:#3a414a;&quot;&gt;- &lt;/span&gt;&lt;span style=&quot;font-size:13.3px;text-decoration: underline;&quot;&gt;cartControllerInstance : CartController&#xa;- &lt;/span&gt;&lt;span style=&quot;font-size:13.1px;font-style: italic;text-decoration: underline;&quot;&gt;CART_SERVICE : &lt;/span&gt;&lt;span style=&quot;font-size:13.1px;text-decoration: underline;&quot;&gt;CartServiceImpl &lt;/span&gt;&lt;/span&gt;&lt;/div&gt;" style="part=1;html=1;resizeHeight=0;strokeColor=none;fillColor=none;align=left;verticalAlign=middle;spacingLeft=4;spacingRight=4;overflow=hidden;rotatable=0;points=[[0,0.5],[1,0.5]];portConstraint=eastwest;swimlaneFillColor=#ffffff;strokeOpacity=100;whiteSpace=wrap;fontSize=16.7;fontColor=#3a414a;fontStyle=6;" vertex="1" parent="7sSd0tKmP4TyFzPP-oEi-50">
          <mxGeometry y="25" width="285" height="86" as="geometry" />
        </mxCell>
        <mxCell id="7sSd0tKmP4TyFzPP-oEi-52" value="" style="line;strokeWidth=1;fillColor=none;align=left;verticalAlign=middle;spacingTop=-1;spacingLeft=3;spacingRight=3;rotatable=0;labelPosition=right;points=[];portConstraint=eastwest;" vertex="1" parent="7sSd0tKmP4TyFzPP-oEi-50">
          <mxGeometry y="111" width="285" height="8" as="geometry" />
        </mxCell>
        <mxCell id="7sSd0tKmP4TyFzPP-oEi-53" value="&lt;div style=&quot;display: flex; justify-content: center; text-align: center; align-items: baseline; font-size: 0; line-height: 1.25;margin-top: -2px;&quot;&gt;&lt;span&gt;&lt;span style=&quot;font-size:13.3px;&quot;&gt;&lt;span style=&quot;font-size:13.3px;&quot;&gt;- CartController()&#xa;+ &lt;/span&gt;&lt;span style=&quot;font-size:13.3px;text-decoration: underline;&quot;&gt;getInstance() : CartController&#xa;&lt;/span&gt;+ getUserCart(userId : int) : Cart &#xa;+ addUserCart(userId : int , cart : Cart ) : void&lt;/span&gt;&lt;/span&gt;&lt;/div&gt;" style="part=1;resizeHeight=0;strokeColor=none;fillColor=none;align=left;verticalAlign=middle;spacingLeft=4;spacingRight=4;rotatable=0;points=[[0,0.5],[1,0.5]];portConstraint=eastwest;swimlaneFillColor=#ffffff;strokeOpacity=100;whiteSpace=wrap;overflow=block;blockSpacing=1;html=1;fontSize=13;" vertex="1" parent="7sSd0tKmP4TyFzPP-oEi-50">
          <mxGeometry y="119" width="285" height="104.5" as="geometry" />
        </mxCell>
        <mxCell id="7sSd0tKmP4TyFzPP-oEi-54" value="WishlistController" style="html=1;overflow=block;blockSpacing=1;swimlane;childLayout=stackLayout;horizontal=1;horizontalStack=0;resizeParent=1;resizeParentMax=0;resizeLast=0;collapsible=0;fontStyle=0;marginBottom=0;swimlaneFillColor=#ffffff;startSize=25;whiteSpace=wrap;fontSize=16.7;fontColor=#3a414a;align=left;spacing=0;strokeColor=#3a414a;strokeOpacity=100;rounded=1;absoluteArcSize=1;arcSize=9;strokeWidth=0.8;" vertex="1" parent="WIyWlLk6GJQsqaUBKTNV-1">
          <mxGeometry x="-3030" y="-2880" width="345" height="233" as="geometry" />
        </mxCell>
        <mxCell id="7sSd0tKmP4TyFzPP-oEi-55" value="&lt;div style=&quot;display: flex; justify-content: center; text-align: center; align-items: baseline; font-size: 0; line-height: 1.25;margin-top: -2px;&quot;&gt;&lt;span&gt;&lt;span style=&quot;font-size:13.1px;&quot;&gt;&lt;span style=&quot;font-size:13.1px;&quot;&gt;- &lt;/span&gt;&lt;span style=&quot;font-size:13.1px;font-style: italic;text-decoration: underline;&quot;&gt;wishlistControllerInstance&lt;/span&gt;&lt;span style=&quot;font-size:13.1px;text-decoration: underline;&quot;&gt; : WishlistController &lt;/span&gt;&lt;span style=&quot;font-size:13.1px;color:#bcbec4;text-decoration: underline;&quot;&gt;&#xa;&lt;/span&gt;&lt;span style=&quot;font-size:13.1px;text-decoration: underline;&quot;&gt;- &lt;/span&gt;&lt;span style=&quot;font-size:13.1px;font-style: italic;text-decoration: underline;&quot;&gt;WISHLIST_SERVICE : &lt;/span&gt;WishlistService&lt;/span&gt;&lt;/span&gt;&lt;/div&gt;" style="part=1;html=1;resizeHeight=0;strokeColor=none;fillColor=none;align=left;verticalAlign=middle;spacingLeft=4;spacingRight=4;overflow=hidden;rotatable=0;points=[[0,0.5],[1,0.5]];portConstraint=eastwest;swimlaneFillColor=#ffffff;strokeOpacity=100;whiteSpace=wrap;fontSize=13.1;fontColor=#bcbec4;fontStyle=6;" vertex="1" parent="7sSd0tKmP4TyFzPP-oEi-54">
          <mxGeometry y="25" width="345" height="87" as="geometry" />
        </mxCell>
        <mxCell id="7sSd0tKmP4TyFzPP-oEi-56" value="" style="line;strokeWidth=1;fillColor=none;align=left;verticalAlign=middle;spacingTop=-1;spacingLeft=3;spacingRight=3;rotatable=0;labelPosition=right;points=[];portConstraint=eastwest;" vertex="1" parent="7sSd0tKmP4TyFzPP-oEi-54">
          <mxGeometry y="112" width="345" height="8" as="geometry" />
        </mxCell>
        <mxCell id="7sSd0tKmP4TyFzPP-oEi-57" value="&lt;div style=&quot;display: flex; justify-content: center; text-align: center; align-items: baseline; font-size: 0; line-height: 1.25;margin-top: -2px;&quot;&gt;&lt;span&gt;&lt;span style=&quot;font-size:13.1px;&quot;&gt;&lt;span style=&quot;font-size:13.1px;&quot;&gt;- WishlistController()&#xa;+&lt;/span&gt;&lt;span style=&quot;font-size:13.1px;text-decoration: underline;&quot;&gt; getInstance() : WishlistController&lt;/span&gt;&#xa;+ getUserWishlist(userId : int) : Wishlist &#xa;+ addUserWishlist( userId : int,  wishlist : Wishlist) : void&lt;/span&gt;&lt;/span&gt;&lt;/div&gt;" style="part=1;resizeHeight=0;strokeColor=none;fillColor=none;align=left;verticalAlign=middle;spacingLeft=4;spacingRight=4;rotatable=0;points=[[0,0.5],[1,0.5]];portConstraint=eastwest;swimlaneFillColor=#ffffff;strokeOpacity=100;whiteSpace=wrap;overflow=block;blockSpacing=1;html=1;fontSize=13;" vertex="1" parent="7sSd0tKmP4TyFzPP-oEi-54">
          <mxGeometry y="120" width="345" height="113" as="geometry" />
        </mxCell>
        <mxCell id="7sSd0tKmP4TyFzPP-oEi-58" value="OrderController" style="html=1;overflow=block;blockSpacing=1;swimlane;childLayout=stackLayout;horizontal=1;horizontalStack=0;resizeParent=1;resizeParentMax=0;resizeLast=0;collapsible=0;fontStyle=0;marginBottom=0;swimlaneFillColor=#ffffff;startSize=25;whiteSpace=wrap;fontSize=16.7;fontColor=#3a414a;align=left;spacing=0;strokeColor=#3a414a;strokeOpacity=100;rounded=1;absoluteArcSize=1;arcSize=9;strokeWidth=0.8;" vertex="1" parent="WIyWlLk6GJQsqaUBKTNV-1">
          <mxGeometry x="-3007" y="-2625" width="270" height="227.25" as="geometry" />
        </mxCell>
        <mxCell id="7sSd0tKmP4TyFzPP-oEi-59" value="+ attribute1:type = defaultValue&#xa;+ attribute2:type&#xa;- attribute3:type" style="part=1;html=1;resizeHeight=0;strokeColor=none;fillColor=none;align=left;verticalAlign=middle;spacingLeft=4;spacingRight=4;overflow=hidden;rotatable=0;points=[[0,0.5],[1,0.5]];portConstraint=eastwest;swimlaneFillColor=#ffffff;strokeOpacity=100;whiteSpace=wrap;fontSize=16.7;fontColor=#3a414a;" vertex="1" parent="7sSd0tKmP4TyFzPP-oEi-58">
          <mxGeometry y="25" width="270" height="92" as="geometry" />
        </mxCell>
        <mxCell id="7sSd0tKmP4TyFzPP-oEi-60" value="" style="line;strokeWidth=1;fillColor=none;align=left;verticalAlign=middle;spacingTop=-1;spacingLeft=3;spacingRight=3;rotatable=0;labelPosition=right;points=[];portConstraint=eastwest;" vertex="1" parent="7sSd0tKmP4TyFzPP-oEi-58">
          <mxGeometry y="117" width="270" height="8" as="geometry" />
        </mxCell>
        <mxCell id="7sSd0tKmP4TyFzPP-oEi-61" value="+ operation1(params):returnType&#xa;- operation2(params)&#xa;- operation3()" style="part=1;html=1;resizeHeight=0;strokeColor=none;fillColor=none;align=left;verticalAlign=middle;spacingLeft=4;spacingRight=4;overflow=hidden;rotatable=0;points=[[0,0.5],[1,0.5]];portConstraint=eastwest;swimlaneFillColor=#ffffff;strokeOpacity=100;whiteSpace=wrap;fontSize=16.7;fontColor=#3a414a;" vertex="1" parent="7sSd0tKmP4TyFzPP-oEi-58">
          <mxGeometry y="125" width="270" height="102.25" as="geometry" />
        </mxCell>
        <mxCell id="7sSd0tKmP4TyFzPP-oEi-62" value="Inventorycontroller" style="html=1;overflow=block;blockSpacing=1;swimlane;childLayout=stackLayout;horizontal=1;horizontalStack=0;resizeParent=1;resizeParentMax=0;resizeLast=0;collapsible=0;fontStyle=0;marginBottom=0;swimlaneFillColor=#ffffff;startSize=25;whiteSpace=wrap;fontSize=16.7;fontColor=#3a414a;align=left;spacing=0;strokeColor=#3a414a;strokeOpacity=100;rounded=1;absoluteArcSize=1;arcSize=9;strokeWidth=0.8;" vertex="1" parent="WIyWlLk6GJQsqaUBKTNV-1">
          <mxGeometry x="-3015" y="-3990" width="315" height="293.5" as="geometry" />
        </mxCell>
        <mxCell id="7sSd0tKmP4TyFzPP-oEi-63" value="&lt;div style=&quot;display: flex; justify-content: center; text-align: center; align-items: baseline; font-size: 0; line-height: 1.25;margin-top: -2px;&quot;&gt;&lt;span&gt;&lt;span style=&quot;font-size:13.1px;color:#c77dbb;font-style: italic;text-decoration: underline;&quot;&gt;- &lt;/span&gt;&lt;span style=&quot;font-size:13.1px;font-style: italic;text-decoration: underline;&quot;&gt;inventoryControllerInstance : InventoryController&#xa;- &lt;/span&gt;&amp;lt;span style=&quot;font-size:13px;&quot;&amp;gt;InventoryController&#xa;- &lt;/span&gt;&lt;span style=&quot;font-size:13.1px;text-decoration: underline;&quot;&gt;InventoryController&#xa;- &lt;/span&gt;&amp;lt;span style=&quot;font-size:13px;&quot;&amp;gt;- &lt;/span&gt;&lt;span style=&quot;font-size:13.1px;&quot;&gt;- &lt;/span&gt;&lt;span style=&quot;font-size:13.1px;font-style: italic;text-decoration: underline;&quot;&gt;INVENTORY : &lt;/span&gt;&lt;span style=&quot;font-size:13.1px;text-decoration: underline;&quot;&gt;InventoryService  &lt;/span&gt;&lt;/span&gt;&lt;/div&gt;" style="part=1;html=1;resizeHeight=0;strokeColor=none;fillColor=none;align=left;verticalAlign=middle;spacingLeft=4;spacingRight=4;overflow=hidden;rotatable=0;points=[[0,0.5],[1,0.5]];portConstraint=eastwest;swimlaneFillColor=#ffffff;strokeOpacity=100;whiteSpace=wrap;fontSize=13.1;fontColor=#c77dbb;fontStyle=6;" vertex="1" parent="7sSd0tKmP4TyFzPP-oEi-62">
          <mxGeometry y="25" width="315" height="114" as="geometry" />
        </mxCell>
        <mxCell id="7sSd0tKmP4TyFzPP-oEi-64" value="" style="line;strokeWidth=1;fillColor=none;align=left;verticalAlign=middle;spacingTop=-1;spacingLeft=3;spacingRight=3;rotatable=0;labelPosition=right;points=[];portConstraint=eastwest;" vertex="1" parent="7sSd0tKmP4TyFzPP-oEi-62">
          <mxGeometry y="139" width="315" height="8" as="geometry" />
        </mxCell>
        <mxCell id="7sSd0tKmP4TyFzPP-oEi-65" value="&lt;div style=&quot;display: flex; justify-content: center; text-align: center; align-items: baseline; font-size: 0; line-height: 1.25;margin-top: -2px;&quot;&gt;&lt;span&gt;&lt;span style=&quot;font-size:13.1px;&quot;&gt;&lt;span style=&quot;font-size:13.1px;&quot;&gt;- InventoryController()&#xa;+ &lt;/span&gt;&lt;span style=&quot;font-size:13.1px;text-decoration: underline;&quot;&gt;getInstance() : InventoryController&lt;/span&gt; &#xa;+ addItemToInventory(item : Product) : void&#xa;+ removeItemFromInventory(item: Product) : void &#xa;+ getMobileItems() : Map&amp;lt;String, List&amp;lt;Product&amp;gt;&amp;gt; &#xa;+ getLaptopItems() : Map&amp;lt;String, List&amp;lt;Product&amp;gt;&amp;gt; &#xa;+ getClothesItems() : Map&amp;lt;String, List&amp;lt;Product&amp;gt;&amp;gt; &lt;/span&gt;&lt;/span&gt;&lt;/div&gt;" style="part=1;resizeHeight=0;strokeColor=none;fillColor=none;align=left;verticalAlign=middle;spacingLeft=4;spacingRight=4;rotatable=0;points=[[0,0.5],[1,0.5]];portConstraint=eastwest;swimlaneFillColor=#ffffff;strokeOpacity=100;whiteSpace=wrap;overflow=block;blockSpacing=1;html=1;fontSize=13;" vertex="1" parent="7sSd0tKmP4TyFzPP-oEi-62">
          <mxGeometry y="147" width="315" height="146.5" as="geometry" />
        </mxCell>
        <mxCell id="7sSd0tKmP4TyFzPP-oEi-66" value="" style="html=1;jettySize=18;whiteSpace=wrap;overflow=block;blockSpacing=1;fontSize=13;strokeColor=#3a414a;strokeOpacity=100;strokeWidth=0.8;rounded=1;arcSize=12;edgeStyle=orthogonalEdgeStyle;startArrow=none;endArrow=open;exitX=1.001;exitY=0.144;exitPerimeter=0;entryX=-0.001;entryY=0.5;entryPerimeter=0;lucidId=m3GRbfqjPZHO;" edge="1" parent="WIyWlLk6GJQsqaUBKTNV-1" source="7sSd0tKmP4TyFzPP-oEi-32" target="7sSd0tKmP4TyFzPP-oEi-46">
          <mxGeometry width="100" height="100" relative="1" as="geometry">
            <Array as="points" />
          </mxGeometry>
        </mxCell>
        <mxCell id="7sSd0tKmP4TyFzPP-oEi-67" value="" style="html=1;jettySize=18;whiteSpace=wrap;overflow=block;blockSpacing=1;fontSize=13;strokeColor=#3a414a;strokeOpacity=100;strokeWidth=0.8;rounded=1;arcSize=12;edgeStyle=orthogonalEdgeStyle;startArrow=none;endArrow=open;exitX=1.001;exitY=0.493;exitPerimeter=0;entryX=-0.001;entryY=0.494;entryPerimeter=0;lucidId=.3GRYiNuBGXj;" edge="1" parent="WIyWlLk6GJQsqaUBKTNV-1" source="7sSd0tKmP4TyFzPP-oEi-32" target="7sSd0tKmP4TyFzPP-oEi-50">
          <mxGeometry width="100" height="100" relative="1" as="geometry">
            <Array as="points" />
          </mxGeometry>
        </mxCell>
        <mxCell id="7sSd0tKmP4TyFzPP-oEi-68" value="" style="html=1;jettySize=18;whiteSpace=wrap;overflow=block;blockSpacing=1;fontSize=13;strokeColor=#3a414a;strokeOpacity=100;strokeWidth=0.8;rounded=1;arcSize=12;edgeStyle=orthogonalEdgeStyle;startArrow=none;endArrow=open;exitX=1.001;exitY=0.948;exitPerimeter=0;entryX=-0.001;entryY=0.5;entryPerimeter=0;lucidId=a4GRcm7iwnYU;" edge="1" parent="WIyWlLk6GJQsqaUBKTNV-1" source="7sSd0tKmP4TyFzPP-oEi-32" target="7sSd0tKmP4TyFzPP-oEi-54">
          <mxGeometry width="100" height="100" relative="1" as="geometry">
            <Array as="points" />
          </mxGeometry>
        </mxCell>
        <mxCell id="7sSd0tKmP4TyFzPP-oEi-69" value="" style="html=1;jettySize=18;whiteSpace=wrap;overflow=block;blockSpacing=1;fontSize=13;strokeColor=#3a414a;strokeOpacity=100;strokeWidth=0.8;rounded=1;arcSize=12;edgeStyle=orthogonalEdgeStyle;startArrow=none;endArrow=open;exitX=0.5;exitY=1.001;exitPerimeter=0;entryX=-0.001;entryY=0.5;entryPerimeter=0;lucidId=V4GR.EUe_Csk;" edge="1" parent="WIyWlLk6GJQsqaUBKTNV-1" source="7sSd0tKmP4TyFzPP-oEi-32" target="7sSd0tKmP4TyFzPP-oEi-58">
          <mxGeometry width="100" height="100" relative="1" as="geometry">
            <Array as="points" />
          </mxGeometry>
        </mxCell>
        <mxCell id="7sSd0tKmP4TyFzPP-oEi-70" value="UserService" style="html=1;overflow=block;blockSpacing=1;swimlane;childLayout=stackLayout;horizontal=1;horizontalStack=0;resizeParent=1;resizeParentMax=0;resizeLast=0;collapsible=0;fontStyle=0;marginBottom=0;swimlaneFillColor=#ffffff;startSize=25;whiteSpace=wrap;fontSize=16.7;align=left;spacing=0;strokeColor=#3a414a;strokeOpacity=100;rounded=1;absoluteArcSize=1;arcSize=9;strokeWidth=0.8;" vertex="1" parent="WIyWlLk6GJQsqaUBKTNV-1">
          <mxGeometry x="-2595" y="-3360" width="270" height="227.25" as="geometry" />
        </mxCell>
        <mxCell id="7sSd0tKmP4TyFzPP-oEi-71" value="+ attribute1:type = defaultValue&#xa;+ attribute2:type&#xa;- attribute3:type" style="part=1;html=1;resizeHeight=0;strokeColor=none;fillColor=none;align=left;verticalAlign=middle;spacingLeft=4;spacingRight=4;overflow=hidden;rotatable=0;points=[[0,0.5],[1,0.5]];portConstraint=eastwest;swimlaneFillColor=#ffffff;strokeOpacity=100;whiteSpace=wrap;fontSize=16.7;" vertex="1" parent="7sSd0tKmP4TyFzPP-oEi-70">
          <mxGeometry y="25" width="270" height="92" as="geometry" />
        </mxCell>
        <mxCell id="7sSd0tKmP4TyFzPP-oEi-72" value="" style="line;strokeWidth=1;fillColor=none;align=left;verticalAlign=middle;spacingTop=-1;spacingLeft=3;spacingRight=3;rotatable=0;labelPosition=right;points=[];portConstraint=eastwest;" vertex="1" parent="7sSd0tKmP4TyFzPP-oEi-70">
          <mxGeometry y="117" width="270" height="8" as="geometry" />
        </mxCell>
        <mxCell id="7sSd0tKmP4TyFzPP-oEi-73" value="+ operation1(params):returnType&#xa;- operation2(params)&#xa;- operation3()" style="part=1;html=1;resizeHeight=0;strokeColor=none;fillColor=none;align=left;verticalAlign=middle;spacingLeft=4;spacingRight=4;overflow=hidden;rotatable=0;points=[[0,0.5],[1,0.5]];portConstraint=eastwest;swimlaneFillColor=#ffffff;strokeOpacity=100;whiteSpace=wrap;fontSize=16.7;" vertex="1" parent="7sSd0tKmP4TyFzPP-oEi-70">
          <mxGeometry y="125" width="270" height="102.25" as="geometry" />
        </mxCell>
        <mxCell id="7sSd0tKmP4TyFzPP-oEi-74" value="CartService" style="html=1;overflow=block;blockSpacing=1;swimlane;childLayout=stackLayout;horizontal=1;horizontalStack=0;resizeParent=1;resizeParentMax=0;resizeLast=0;collapsible=0;fontStyle=0;marginBottom=0;swimlaneFillColor=#ffffff;startSize=25;whiteSpace=wrap;fontSize=16.7;align=left;spacing=0;strokeColor=#3a414a;strokeOpacity=100;rounded=1;absoluteArcSize=1;arcSize=9;strokeWidth=0.8;" vertex="1" parent="WIyWlLk6GJQsqaUBKTNV-1">
          <mxGeometry x="-2595" y="-3120" width="270" height="227.25" as="geometry" />
        </mxCell>
        <mxCell id="7sSd0tKmP4TyFzPP-oEi-75" value="+ attribute1:type = defaultValue&#xa;+ attribute2:type&#xa;- attribute3:type" style="part=1;html=1;resizeHeight=0;strokeColor=none;fillColor=none;align=left;verticalAlign=middle;spacingLeft=4;spacingRight=4;overflow=hidden;rotatable=0;points=[[0,0.5],[1,0.5]];portConstraint=eastwest;swimlaneFillColor=#ffffff;strokeOpacity=100;whiteSpace=wrap;fontSize=16.7;" vertex="1" parent="7sSd0tKmP4TyFzPP-oEi-74">
          <mxGeometry y="25" width="270" height="92" as="geometry" />
        </mxCell>
        <mxCell id="7sSd0tKmP4TyFzPP-oEi-76" value="" style="line;strokeWidth=1;fillColor=none;align=left;verticalAlign=middle;spacingTop=-1;spacingLeft=3;spacingRight=3;rotatable=0;labelPosition=right;points=[];portConstraint=eastwest;" vertex="1" parent="7sSd0tKmP4TyFzPP-oEi-74">
          <mxGeometry y="117" width="270" height="8" as="geometry" />
        </mxCell>
        <mxCell id="7sSd0tKmP4TyFzPP-oEi-77" value="+ operation1(params):returnType&#xa;- operation2(params)&#xa;- operation3()" style="part=1;html=1;resizeHeight=0;strokeColor=none;fillColor=none;align=left;verticalAlign=middle;spacingLeft=4;spacingRight=4;overflow=hidden;rotatable=0;points=[[0,0.5],[1,0.5]];portConstraint=eastwest;swimlaneFillColor=#ffffff;strokeOpacity=100;whiteSpace=wrap;fontSize=16.7;" vertex="1" parent="7sSd0tKmP4TyFzPP-oEi-74">
          <mxGeometry y="125" width="270" height="102.25" as="geometry" />
        </mxCell>
        <mxCell id="7sSd0tKmP4TyFzPP-oEi-78" value="WishlistService" style="html=1;overflow=block;blockSpacing=1;swimlane;childLayout=stackLayout;horizontal=1;horizontalStack=0;resizeParent=1;resizeParentMax=0;resizeLast=0;collapsible=0;fontStyle=0;marginBottom=0;swimlaneFillColor=#ffffff;startSize=25;whiteSpace=wrap;fontSize=16.7;align=left;spacing=0;strokeColor=#3a414a;strokeOpacity=100;rounded=1;absoluteArcSize=1;arcSize=9;strokeWidth=0.8;" vertex="1" parent="WIyWlLk6GJQsqaUBKTNV-1">
          <mxGeometry x="-2595" y="-2880" width="270" height="227.25" as="geometry" />
        </mxCell>
        <mxCell id="7sSd0tKmP4TyFzPP-oEi-79" value="+ attribute1:type = defaultValue&#xa;+ attribute2:type&#xa;- attribute3:type" style="part=1;html=1;resizeHeight=0;strokeColor=none;fillColor=none;align=left;verticalAlign=middle;spacingLeft=4;spacingRight=4;overflow=hidden;rotatable=0;points=[[0,0.5],[1,0.5]];portConstraint=eastwest;swimlaneFillColor=#ffffff;strokeOpacity=100;whiteSpace=wrap;fontSize=16.7;" vertex="1" parent="7sSd0tKmP4TyFzPP-oEi-78">
          <mxGeometry y="25" width="270" height="92" as="geometry" />
        </mxCell>
        <mxCell id="7sSd0tKmP4TyFzPP-oEi-80" value="" style="line;strokeWidth=1;fillColor=none;align=left;verticalAlign=middle;spacingTop=-1;spacingLeft=3;spacingRight=3;rotatable=0;labelPosition=right;points=[];portConstraint=eastwest;" vertex="1" parent="7sSd0tKmP4TyFzPP-oEi-78">
          <mxGeometry y="117" width="270" height="8" as="geometry" />
        </mxCell>
        <mxCell id="7sSd0tKmP4TyFzPP-oEi-81" value="+ operation1(params):returnType&#xa;- operation2(params)&#xa;- operation3()" style="part=1;html=1;resizeHeight=0;strokeColor=none;fillColor=none;align=left;verticalAlign=middle;spacingLeft=4;spacingRight=4;overflow=hidden;rotatable=0;points=[[0,0.5],[1,0.5]];portConstraint=eastwest;swimlaneFillColor=#ffffff;strokeOpacity=100;whiteSpace=wrap;fontSize=16.7;" vertex="1" parent="7sSd0tKmP4TyFzPP-oEi-78">
          <mxGeometry y="125" width="270" height="102.25" as="geometry" />
        </mxCell>
        <mxCell id="7sSd0tKmP4TyFzPP-oEi-82" value="OrderService" style="html=1;overflow=block;blockSpacing=1;swimlane;childLayout=stackLayout;horizontal=1;horizontalStack=0;resizeParent=1;resizeParentMax=0;resizeLast=0;collapsible=0;fontStyle=0;marginBottom=0;swimlaneFillColor=#ffffff;startSize=25;whiteSpace=wrap;fontSize=16.7;align=left;spacing=0;strokeColor=#3a414a;strokeOpacity=100;rounded=1;absoluteArcSize=1;arcSize=9;strokeWidth=0.8;" vertex="1" parent="WIyWlLk6GJQsqaUBKTNV-1">
          <mxGeometry x="-2595" y="-2625" width="270" height="227.25" as="geometry" />
        </mxCell>
        <mxCell id="7sSd0tKmP4TyFzPP-oEi-83" value="+ attribute1:type = defaultValue&#xa;+ attribute2:type&#xa;- attribute3:type" style="part=1;html=1;resizeHeight=0;strokeColor=none;fillColor=none;align=left;verticalAlign=middle;spacingLeft=4;spacingRight=4;overflow=hidden;rotatable=0;points=[[0,0.5],[1,0.5]];portConstraint=eastwest;swimlaneFillColor=#ffffff;strokeOpacity=100;whiteSpace=wrap;fontSize=16.7;" vertex="1" parent="7sSd0tKmP4TyFzPP-oEi-82">
          <mxGeometry y="25" width="270" height="92" as="geometry" />
        </mxCell>
        <mxCell id="7sSd0tKmP4TyFzPP-oEi-84" value="" style="line;strokeWidth=1;fillColor=none;align=left;verticalAlign=middle;spacingTop=-1;spacingLeft=3;spacingRight=3;rotatable=0;labelPosition=right;points=[];portConstraint=eastwest;" vertex="1" parent="7sSd0tKmP4TyFzPP-oEi-82">
          <mxGeometry y="117" width="270" height="8" as="geometry" />
        </mxCell>
        <mxCell id="7sSd0tKmP4TyFzPP-oEi-85" value="+ operation1(params):returnType&#xa;- operation2(params)&#xa;- operation3()" style="part=1;html=1;resizeHeight=0;strokeColor=none;fillColor=none;align=left;verticalAlign=middle;spacingLeft=4;spacingRight=4;overflow=hidden;rotatable=0;points=[[0,0.5],[1,0.5]];portConstraint=eastwest;swimlaneFillColor=#ffffff;strokeOpacity=100;whiteSpace=wrap;fontSize=16.7;" vertex="1" parent="7sSd0tKmP4TyFzPP-oEi-82">
          <mxGeometry y="125" width="270" height="102.25" as="geometry" />
        </mxCell>
        <mxCell id="7sSd0tKmP4TyFzPP-oEi-86" value="Class" style="html=1;overflow=block;blockSpacing=1;swimlane;childLayout=stackLayout;horizontal=1;horizontalStack=0;resizeParent=1;resizeParentMax=0;resizeLast=0;collapsible=0;fontStyle=0;marginBottom=0;swimlaneFillColor=#ffffff;startSize=25;whiteSpace=wrap;fontSize=16.7;align=left;spacing=0;strokeColor=#3a414a;strokeOpacity=100;rounded=1;absoluteArcSize=1;arcSize=9;strokeWidth=0.8;" vertex="1" parent="WIyWlLk6GJQsqaUBKTNV-1">
          <mxGeometry x="-2970" y="-2265" width="270" height="227.25" as="geometry" />
        </mxCell>
        <mxCell id="7sSd0tKmP4TyFzPP-oEi-87" value="+ attribute1:type = defaultValue&#xa;+ attribute2:type&#xa;- attribute3:type" style="part=1;html=1;resizeHeight=0;strokeColor=none;fillColor=none;align=left;verticalAlign=middle;spacingLeft=4;spacingRight=4;overflow=hidden;rotatable=0;points=[[0,0.5],[1,0.5]];portConstraint=eastwest;swimlaneFillColor=#ffffff;strokeOpacity=100;whiteSpace=wrap;fontSize=16.7;" vertex="1" parent="7sSd0tKmP4TyFzPP-oEi-86">
          <mxGeometry y="25" width="270" height="92" as="geometry" />
        </mxCell>
        <mxCell id="7sSd0tKmP4TyFzPP-oEi-88" value="" style="line;strokeWidth=1;fillColor=none;align=left;verticalAlign=middle;spacingTop=-1;spacingLeft=3;spacingRight=3;rotatable=0;labelPosition=right;points=[];portConstraint=eastwest;" vertex="1" parent="7sSd0tKmP4TyFzPP-oEi-86">
          <mxGeometry y="117" width="270" height="8" as="geometry" />
        </mxCell>
        <mxCell id="7sSd0tKmP4TyFzPP-oEi-89" value="+ operation1(params):returnType&#xa;- operation2(params)&#xa;- operation3()" style="part=1;html=1;resizeHeight=0;strokeColor=none;fillColor=none;align=left;verticalAlign=middle;spacingLeft=4;spacingRight=4;overflow=hidden;rotatable=0;points=[[0,0.5],[1,0.5]];portConstraint=eastwest;swimlaneFillColor=#ffffff;strokeOpacity=100;whiteSpace=wrap;fontSize=16.7;" vertex="1" parent="7sSd0tKmP4TyFzPP-oEi-86">
          <mxGeometry y="125" width="270" height="102.25" as="geometry" />
        </mxCell>
        <mxCell id="7sSd0tKmP4TyFzPP-oEi-90" value="UserServiceImpl" style="html=1;overflow=block;blockSpacing=1;swimlane;childLayout=stackLayout;horizontal=1;horizontalStack=0;resizeParent=1;resizeParentMax=0;resizeLast=0;collapsible=0;fontStyle=0;marginBottom=0;swimlaneFillColor=#ffffff;startSize=25;whiteSpace=wrap;fontSize=16.7;align=left;spacing=0;strokeColor=#3a414a;strokeOpacity=100;rounded=1;absoluteArcSize=1;arcSize=9;strokeWidth=0.8;" vertex="1" parent="WIyWlLk6GJQsqaUBKTNV-1">
          <mxGeometry x="-2190" y="-3358" width="330" height="229" as="geometry" />
        </mxCell>
        <mxCell id="7sSd0tKmP4TyFzPP-oEi-91" value="&lt;div style=&quot;display: flex; justify-content: center; text-align: center; align-items: baseline; font-size: 0; line-height: 1.25;margin-top: -2px;&quot;&gt;&lt;span&gt;&lt;span style=&quot;font-size:16.7px;&quot;&gt;- &lt;/span&gt;&lt;span style=&quot;font-size:13.1px;font-style: italic;text-decoration: underline;&quot;&gt;userServiceInstance :&lt;/span&gt;&lt;span style=&quot;font-size:13.1px;text-decoration: underline;&quot;&gt; UserServiceImpl &#xa;&lt;/span&gt;&lt;span style=&quot;font-size:13.1px;&quot;&gt;- &lt;/span&gt;&lt;span style=&quot;font-size:13.1px;text-decoration: underline;&quot;&gt;USERS : &lt;/span&gt;&lt;span style=&quot;font-size:13.1px;text-decoration: underline;&quot;&gt;Map&amp;lt;String, User&amp;gt;&lt;/span&gt;&lt;/span&gt;&lt;/div&gt;" style="part=1;html=1;resizeHeight=0;strokeColor=none;fillColor=none;align=left;verticalAlign=middle;spacingLeft=4;spacingRight=4;overflow=hidden;rotatable=0;points=[[0,0.5],[1,0.5]];portConstraint=eastwest;swimlaneFillColor=#ffffff;strokeOpacity=100;whiteSpace=wrap;fontSize=16.7;fontStyle=6;" vertex="1" parent="7sSd0tKmP4TyFzPP-oEi-90">
          <mxGeometry y="25" width="330" height="91" as="geometry" />
        </mxCell>
        <mxCell id="7sSd0tKmP4TyFzPP-oEi-92" value="" style="line;strokeWidth=1;fillColor=none;align=left;verticalAlign=middle;spacingTop=-1;spacingLeft=3;spacingRight=3;rotatable=0;labelPosition=right;points=[];portConstraint=eastwest;" vertex="1" parent="7sSd0tKmP4TyFzPP-oEi-90">
          <mxGeometry y="116" width="330" height="8" as="geometry" />
        </mxCell>
        <mxCell id="7sSd0tKmP4TyFzPP-oEi-93" value="&lt;div style=&quot;display: flex; justify-content: center; text-align: center; align-items: baseline; font-size: 0; line-height: 1.25;margin-top: -2px;&quot;&gt;&lt;span&gt;&lt;span style=&quot;font-size:13.3px;&quot;&gt;&lt;span style=&quot;font-size:13.3px;&quot;&gt;- UserServiceImpl()&#xa;+ &lt;/span&gt;&lt;span style=&quot;font-size:13.3px;text-decoration: underline;&quot;&gt;getInstance() : userServiceInstance&#xa;&lt;/span&gt;&lt;span style=&quot;font-size:13.1px;&quot;&gt;+ createNewUser(user : User ) : boolean&#xa;+ getExistingUser(mobileNumber : String , password : String ) : User &lt;/span&gt;&lt;/span&gt;&lt;/span&gt;&lt;/div&gt;" style="part=1;resizeHeight=0;strokeColor=none;fillColor=none;align=left;verticalAlign=middle;spacingLeft=4;spacingRight=4;rotatable=0;points=[[0,0.5],[1,0.5]];portConstraint=eastwest;swimlaneFillColor=#ffffff;strokeOpacity=100;whiteSpace=wrap;overflow=block;blockSpacing=1;html=1;fontSize=13;" vertex="1" parent="7sSd0tKmP4TyFzPP-oEi-90">
          <mxGeometry y="124" width="330" height="105" as="geometry" />
        </mxCell>
        <mxCell id="7sSd0tKmP4TyFzPP-oEi-94" value="CartServiceImpl" style="html=1;overflow=block;blockSpacing=1;swimlane;childLayout=stackLayout;horizontal=1;horizontalStack=0;resizeParent=1;resizeParentMax=0;resizeLast=0;collapsible=0;fontStyle=0;marginBottom=0;swimlaneFillColor=#ffffff;startSize=25;whiteSpace=wrap;fontSize=16.7;align=left;spacing=0;strokeColor=#3a414a;strokeOpacity=100;rounded=1;absoluteArcSize=1;arcSize=9;strokeWidth=0.8;" vertex="1" parent="WIyWlLk6GJQsqaUBKTNV-1">
          <mxGeometry x="-2182" y="-3111" width="285" height="187.5" as="geometry" />
        </mxCell>
        <mxCell id="7sSd0tKmP4TyFzPP-oEi-95" value="&lt;div style=&quot;display: flex; justify-content: center; text-align: center; align-items: baseline; font-size: 0; line-height: 1.25;margin-top: -2px;&quot;&gt;&lt;span&gt;&lt;span style=&quot;font-size:16.7px;&quot;&gt;- &lt;/span&gt;&lt;span style=&quot;font-size:13.1px;font-style: italic;text-decoration: underline;&quot;&gt;cartServiceInstance :&lt;/span&gt;&lt;span style=&quot;font-size:13.1px;text-decoration: underline;&quot;&gt; CartServiceImpl &#xa;&lt;/span&gt;&lt;span style=&quot;font-size:13.1px;&quot;&gt;- &lt;/span&gt;&lt;span style=&quot;font-size:13.1px;text-decoration: underline;&quot;&gt;CARTS : &lt;/span&gt;&lt;span style=&quot;font-size:13.1px;text-decoration: underline;&quot;&gt;Map&amp;lt;Integer, Cart&amp;gt;&lt;/span&gt;&lt;/span&gt;&lt;/div&gt;" style="part=1;html=1;resizeHeight=0;strokeColor=none;fillColor=none;align=left;verticalAlign=middle;spacingLeft=4;spacingRight=4;overflow=hidden;rotatable=0;points=[[0,0.5],[1,0.5]];portConstraint=eastwest;swimlaneFillColor=#ffffff;strokeOpacity=100;whiteSpace=wrap;fontSize=16.7;fontStyle=6;" vertex="1" parent="7sSd0tKmP4TyFzPP-oEi-94">
          <mxGeometry y="25" width="285" height="77" as="geometry" />
        </mxCell>
        <mxCell id="7sSd0tKmP4TyFzPP-oEi-96" value="" style="line;strokeWidth=1;fillColor=none;align=left;verticalAlign=middle;spacingTop=-1;spacingLeft=3;spacingRight=3;rotatable=0;labelPosition=right;points=[];portConstraint=eastwest;" vertex="1" parent="7sSd0tKmP4TyFzPP-oEi-94">
          <mxGeometry y="102" width="285" height="8" as="geometry" />
        </mxCell>
        <mxCell id="7sSd0tKmP4TyFzPP-oEi-97" value="&lt;div style=&quot;display: flex; justify-content: center; text-align: center; align-items: baseline; font-size: 0; line-height: 1.25;margin-top: -2px;&quot;&gt;&lt;span&gt;&lt;span style=&quot;font-size:13.3px;&quot;&gt;&lt;span style=&quot;font-size:13.3px;&quot;&gt;- CartServiceImpl()&#xa;+ &lt;/span&gt;&lt;span style=&quot;font-size:13.3px;text-decoration: underline;&quot;&gt;getInstance() : cartServiceInstance&#xa;&lt;/span&gt;+ &lt;/span&gt;&lt;span style=&quot;font-size:13.1px;&quot;&gt;getUserCart(userId : int) : Cart &#xa;+ addUserCart(userId : int, cart :Cart ) : void&lt;/span&gt;&lt;/span&gt;&lt;/div&gt;" style="part=1;resizeHeight=0;strokeColor=none;fillColor=none;align=left;verticalAlign=middle;spacingLeft=4;spacingRight=4;rotatable=0;points=[[0,0.5],[1,0.5]];portConstraint=eastwest;swimlaneFillColor=#ffffff;strokeOpacity=100;whiteSpace=wrap;overflow=block;blockSpacing=1;html=1;fontSize=13;" vertex="1" parent="7sSd0tKmP4TyFzPP-oEi-94">
          <mxGeometry y="110" width="285" height="77.5" as="geometry" />
        </mxCell>
        <mxCell id="7sSd0tKmP4TyFzPP-oEi-98" value="WishlistServiceImpl" style="html=1;overflow=block;blockSpacing=1;swimlane;childLayout=stackLayout;horizontal=1;horizontalStack=0;resizeParent=1;resizeParentMax=0;resizeLast=0;collapsible=0;fontStyle=0;marginBottom=0;swimlaneFillColor=#ffffff;startSize=25;whiteSpace=wrap;fontSize=16.7;align=left;spacing=0;strokeColor=#3a414a;strokeOpacity=100;rounded=1;absoluteArcSize=1;arcSize=9;strokeWidth=0.8;" vertex="1" parent="WIyWlLk6GJQsqaUBKTNV-1">
          <mxGeometry x="-2182" y="-2865" width="345" height="189" as="geometry" />
        </mxCell>
        <mxCell id="7sSd0tKmP4TyFzPP-oEi-99" value="&lt;div style=&quot;display: flex; justify-content: center; text-align: center; align-items: baseline; font-size: 0; line-height: 1.25;margin-top: -2px;&quot;&gt;&lt;span&gt;&lt;span style=&quot;font-size:16.7px;&quot;&gt;- &lt;/span&gt;&lt;span style=&quot;font-size:13.1px;font-style: italic;text-decoration: underline;&quot;&gt;wishlistServiceInstance :&lt;/span&gt;&lt;span style=&quot;font-size:13.1px;text-decoration: underline;&quot;&gt; WishlistServiceImpl &#xa;&lt;/span&gt;&lt;span style=&quot;font-size:13.1px;&quot;&gt;- &lt;/span&gt;&lt;span style=&quot;font-size:13.1px;text-decoration: underline;&quot;&gt;WISHLISTS : &lt;/span&gt;&lt;span style=&quot;font-size:13.1px;text-decoration: underline;&quot;&gt;Map&amp;lt;Integer, Wishlist&amp;gt;&lt;/span&gt;&lt;/span&gt;&lt;/div&gt;" style="part=1;html=1;resizeHeight=0;strokeColor=none;fillColor=none;align=left;verticalAlign=middle;spacingLeft=4;spacingRight=4;overflow=hidden;rotatable=0;points=[[0,0.5],[1,0.5]];portConstraint=eastwest;swimlaneFillColor=#ffffff;strokeOpacity=100;whiteSpace=wrap;fontSize=16.7;fontStyle=6;" vertex="1" parent="7sSd0tKmP4TyFzPP-oEi-98">
          <mxGeometry y="25" width="345" height="77" as="geometry" />
        </mxCell>
        <mxCell id="7sSd0tKmP4TyFzPP-oEi-100" value="" style="line;strokeWidth=1;fillColor=none;align=left;verticalAlign=middle;spacingTop=-1;spacingLeft=3;spacingRight=3;rotatable=0;labelPosition=right;points=[];portConstraint=eastwest;" vertex="1" parent="7sSd0tKmP4TyFzPP-oEi-98">
          <mxGeometry y="102" width="345" height="8" as="geometry" />
        </mxCell>
        <mxCell id="7sSd0tKmP4TyFzPP-oEi-101" value="&lt;div style=&quot;display: flex; justify-content: center; text-align: center; align-items: baseline; font-size: 0; line-height: 1.25;margin-top: -2px;&quot;&gt;&lt;span&gt;&lt;span style=&quot;font-size:13.3px;&quot;&gt;- &lt;/span&gt;&lt;span style=&quot;font-size:13.1px;&quot;&gt;Wishlist&lt;/span&gt;&lt;span style=&quot;font-size:13.3px;&quot;&gt;&lt;span style=&quot;font-size:13.3px;&quot;&gt;ServiceImpl()&#xa;+ &lt;/span&gt;&lt;span style=&quot;font-size:13.3px;text-decoration: underline;&quot;&gt;getInstance() : &lt;/span&gt;&lt;span style=&quot;font-size:13.1px;text-decoration: underline;&quot;&gt;wishlist&lt;/span&gt;&lt;span style=&quot;font-size:13.3px;text-decoration: underline;&quot;&gt;ServiceInstance&#xa;&lt;/span&gt;+ &lt;/span&gt;&lt;span style=&quot;font-size:13.1px;&quot;&gt;&lt;span style=&quot;font-size:13.1px;&quot;&gt;getUser&lt;/span&gt;&lt;span style=&quot;font-size:13.1px;&quot;&gt;Wishlist&lt;/span&gt;&lt;span style=&quot;font-size:13.1px;&quot;&gt;(userId : int) : &lt;/span&gt;&lt;span style=&quot;font-size:13.1px;&quot;&gt;Wishlist&lt;/span&gt;&lt;span style=&quot;font-size:13.1px;&quot;&gt; &#xa;+ addUser&lt;/span&gt;&lt;span style=&quot;font-size:13.1px;&quot;&gt;Wishlist&lt;/span&gt;&lt;span style=&quot;font-size:13.1px;&quot;&gt;(userId : int, &lt;/span&gt;&lt;span style=&quot;font-size:13.1px;&quot;&gt;wishlist&lt;/span&gt;&lt;span style=&quot;font-size:13.1px;&quot;&gt; :&lt;/span&gt;&lt;span style=&quot;font-size:13.1px;&quot;&gt;Wishlist&lt;/span&gt; ) : void&lt;/span&gt;&lt;/span&gt;&lt;/div&gt;" style="part=1;resizeHeight=0;strokeColor=none;fillColor=none;align=left;verticalAlign=middle;spacingLeft=4;spacingRight=4;rotatable=0;points=[[0,0.5],[1,0.5]];portConstraint=eastwest;swimlaneFillColor=#ffffff;strokeOpacity=100;whiteSpace=wrap;overflow=block;blockSpacing=1;html=1;fontSize=13;" vertex="1" parent="7sSd0tKmP4TyFzPP-oEi-98">
          <mxGeometry y="110" width="345" height="79" as="geometry" />
        </mxCell>
        <mxCell id="7sSd0tKmP4TyFzPP-oEi-102" value="OrderServiceImpl" style="html=1;overflow=block;blockSpacing=1;swimlane;childLayout=stackLayout;horizontal=1;horizontalStack=0;resizeParent=1;resizeParentMax=0;resizeLast=0;collapsible=0;fontStyle=0;marginBottom=0;swimlaneFillColor=#ffffff;startSize=25;whiteSpace=wrap;fontSize=16.7;align=left;spacing=0;strokeColor=#3a414a;strokeOpacity=100;rounded=1;absoluteArcSize=1;arcSize=9;strokeWidth=0.8;" vertex="1" parent="WIyWlLk6GJQsqaUBKTNV-1">
          <mxGeometry x="-2167" y="-2619" width="338" height="207.25" as="geometry" />
        </mxCell>
        <mxCell id="7sSd0tKmP4TyFzPP-oEi-103" value="&lt;div style=&quot;display: flex; justify-content: center; text-align: center; align-items: baseline; font-size: 0; line-height: 1.25;margin-top: -2px;&quot;&gt;&lt;span&gt;&lt;span style=&quot;font-size:16.7px;&quot;&gt;- &lt;/span&gt;&lt;span style=&quot;font-size:13.1px;font-style: italic;text-decoration: underline;&quot;&gt;orderServiceInstance :&lt;/span&gt;&lt;span style=&quot;font-size:13.1px;text-decoration: underline;&quot;&gt; &lt;/span&gt;&lt;span style=&quot;font-size:13.1px;font-style: italic;text-decoration: underline;&quot;&gt;Order&lt;/span&gt;&lt;span style=&quot;font-size:13.1px;text-decoration: underline;&quot;&gt;ServiceImpl &#xa;&lt;/span&gt;&lt;span style=&quot;font-size:13.1px;&quot;&gt;- &lt;/span&gt;&lt;span style=&quot;font-size:13.1px;text-decoration: underline;&quot;&gt;ORDERS : &lt;/span&gt;&lt;span style=&quot;font-size:13.1px;text-decoration: underline;&quot;&gt;Map&amp;lt;Integer, Order&amp;gt;&lt;/span&gt;&lt;/span&gt;&lt;/div&gt;" style="part=1;html=1;resizeHeight=0;strokeColor=none;fillColor=none;align=left;verticalAlign=middle;spacingLeft=4;spacingRight=4;overflow=hidden;rotatable=0;points=[[0,0.5],[1,0.5]];portConstraint=eastwest;swimlaneFillColor=#ffffff;strokeOpacity=100;whiteSpace=wrap;fontSize=16.7;fontStyle=6;" vertex="1" parent="7sSd0tKmP4TyFzPP-oEi-102">
          <mxGeometry y="25" width="338" height="82" as="geometry" />
        </mxCell>
        <mxCell id="7sSd0tKmP4TyFzPP-oEi-104" value="" style="line;strokeWidth=1;fillColor=none;align=left;verticalAlign=middle;spacingTop=-1;spacingLeft=3;spacingRight=3;rotatable=0;labelPosition=right;points=[];portConstraint=eastwest;" vertex="1" parent="7sSd0tKmP4TyFzPP-oEi-102">
          <mxGeometry y="107" width="338" height="8" as="geometry" />
        </mxCell>
        <mxCell id="7sSd0tKmP4TyFzPP-oEi-105" value="&lt;div style=&quot;display: flex; justify-content: center; text-align: center; align-items: baseline; font-size: 0; line-height: 1.25;margin-top: -2px;&quot;&gt;&lt;span&gt;&lt;span style=&quot;font-size:13.3px;&quot;&gt;- &lt;/span&gt;&lt;span style=&quot;font-size:13.1px;font-style: italic;&quot;&gt;Order&lt;/span&gt;&lt;span style=&quot;font-size:13.3px;&quot;&gt;&lt;span style=&quot;font-size:13.3px;&quot;&gt;ServiceImpl()&#xa;+ &lt;/span&gt;&lt;span style=&quot;font-size:13.3px;text-decoration: underline;&quot;&gt;getInstance() : &lt;/span&gt;&lt;span style=&quot;font-size:13.1px;font-style: italic;text-decoration: underline;&quot;&gt;order&lt;/span&gt;&lt;span style=&quot;font-size:13.3px;text-decoration: underline;&quot;&gt;ServiceInstance&#xa;&lt;/span&gt;+ &lt;/span&gt;&lt;span style=&quot;font-size:13.1px;&quot;&gt;&lt;span style=&quot;font-size:13.1px;&quot;&gt;get&lt;/span&gt;&lt;span style=&quot;font-size:13.1px;font-style: italic;&quot;&gt;Order&lt;/span&gt;&lt;span style=&quot;font-size:13.1px;&quot;&gt;(userId : int) : &lt;/span&gt;&lt;span style=&quot;font-size:13.1px;font-style: italic;&quot;&gt;Order&lt;/span&gt;&lt;span style=&quot;font-size:13.1px;&quot;&gt; &#xa;+ add&lt;/span&gt;&lt;span style=&quot;font-size:13.1px;font-style: italic;&quot;&gt;Order&lt;/span&gt;&lt;span style=&quot;font-size:13.1px;&quot;&gt;(userId : int, &lt;/span&gt;&lt;span style=&quot;font-size:13.1px;font-style: italic;&quot;&gt;order&lt;/span&gt;&lt;span style=&quot;font-size:13.1px;&quot;&gt; :&lt;/span&gt;&lt;span style=&quot;font-size:13.1px;font-style: italic;&quot;&gt;Order&lt;/span&gt; ) : void&lt;/span&gt;&lt;/span&gt;&lt;/div&gt;" style="part=1;resizeHeight=0;strokeColor=none;fillColor=none;align=left;verticalAlign=middle;spacingLeft=4;spacingRight=4;rotatable=0;points=[[0,0.5],[1,0.5]];portConstraint=eastwest;swimlaneFillColor=#ffffff;strokeOpacity=100;whiteSpace=wrap;overflow=block;blockSpacing=1;html=1;fontSize=13;" vertex="1" parent="7sSd0tKmP4TyFzPP-oEi-102">
          <mxGeometry y="115" width="338" height="92.25" as="geometry" />
        </mxCell>
        <mxCell id="7sSd0tKmP4TyFzPP-oEi-106" value="" style="html=1;jettySize=18;whiteSpace=wrap;overflow=block;blockSpacing=1;fontSize=13;strokeColor=#3a414a;strokeOpacity=100;strokeWidth=0.8;rounded=1;arcSize=12;edgeStyle=orthogonalEdgeStyle;startArrow=none;endArrow=open;exitX=1.001;exitY=0.5;exitPerimeter=0;entryX=-0.001;entryY=0.496;entryPerimeter=0;lucidId=EkHR8nyLI-Df;" edge="1" parent="WIyWlLk6GJQsqaUBKTNV-1" source="7sSd0tKmP4TyFzPP-oEi-70" target="7sSd0tKmP4TyFzPP-oEi-90">
          <mxGeometry width="100" height="100" relative="1" as="geometry">
            <Array as="points" />
          </mxGeometry>
        </mxCell>
        <mxCell id="7sSd0tKmP4TyFzPP-oEi-107" value="" style="html=1;jettySize=18;whiteSpace=wrap;overflow=block;blockSpacing=1;fontSize=13;strokeColor=#3a414a;strokeOpacity=100;strokeWidth=0.8;rounded=1;arcSize=12;edgeStyle=orthogonalEdgeStyle;startArrow=none;endArrow=open;exitX=1.001;exitY=0.5;exitPerimeter=0;entryX=-0.001;entryY=0.534;entryPerimeter=0;lucidId=MkHRqL2j_jwl;" edge="1" parent="WIyWlLk6GJQsqaUBKTNV-1" source="7sSd0tKmP4TyFzPP-oEi-74" target="7sSd0tKmP4TyFzPP-oEi-94">
          <mxGeometry width="100" height="100" relative="1" as="geometry">
            <Array as="points" />
          </mxGeometry>
        </mxCell>
        <mxCell id="7sSd0tKmP4TyFzPP-oEi-108" value="" style="html=1;jettySize=18;whiteSpace=wrap;overflow=block;blockSpacing=1;fontSize=13;strokeColor=#3a414a;strokeOpacity=100;strokeWidth=0.8;rounded=1;arcSize=12;edgeStyle=orthogonalEdgeStyle;startArrow=none;endArrow=open;exitX=1.001;exitY=0.5;exitPerimeter=0;entryX=-0.001;entryY=0.5;entryPerimeter=0;lucidId=UkHR_Bb8kTqq;" edge="1" parent="WIyWlLk6GJQsqaUBKTNV-1" source="7sSd0tKmP4TyFzPP-oEi-78" target="7sSd0tKmP4TyFzPP-oEi-98">
          <mxGeometry width="100" height="100" relative="1" as="geometry">
            <Array as="points" />
          </mxGeometry>
        </mxCell>
        <mxCell id="7sSd0tKmP4TyFzPP-oEi-109" value="" style="html=1;jettySize=18;whiteSpace=wrap;overflow=block;blockSpacing=1;fontSize=13;strokeColor=#3a414a;strokeOpacity=100;strokeWidth=0.8;rounded=1;arcSize=12;edgeStyle=orthogonalEdgeStyle;startArrow=none;endArrow=open;exitX=1.001;exitY=0.5;exitPerimeter=0;entryX=-0.001;entryY=0.522;entryPerimeter=0;lucidId=-kHRXJkkX9u6;" edge="1" parent="WIyWlLk6GJQsqaUBKTNV-1" source="7sSd0tKmP4TyFzPP-oEi-82" target="7sSd0tKmP4TyFzPP-oEi-102">
          <mxGeometry width="100" height="100" relative="1" as="geometry">
            <Array as="points" />
          </mxGeometry>
        </mxCell>
        <mxCell id="7sSd0tKmP4TyFzPP-oEi-110" value="UserDataValidator" style="html=1;overflow=block;blockSpacing=1;swimlane;childLayout=stackLayout;horizontal=1;horizontalStack=0;resizeParent=1;resizeParentMax=0;resizeLast=0;collapsible=0;fontStyle=0;marginBottom=0;swimlaneFillColor=#ffffff;startSize=25;whiteSpace=wrap;fontSize=16.7;align=left;spacing=0;strokeColor=#3a414a;strokeOpacity=100;rounded=1;absoluteArcSize=1;arcSize=9;strokeWidth=0.8;" vertex="1" parent="WIyWlLk6GJQsqaUBKTNV-1">
          <mxGeometry x="-4110" y="-3202" width="413" height="310.25" as="geometry" />
        </mxCell>
        <mxCell id="7sSd0tKmP4TyFzPP-oEi-111" value="&lt;div style=&quot;display: flex; justify-content: center; text-align: center; align-items: baseline; font-size: 0; line-height: 1.25;margin-top: -2px;&quot;&gt;&lt;span&gt;&lt;span style=&quot;font-size:13.1px;&quot;&gt;&lt;span style=&quot;font-size:13.1px;&quot;&gt;- &lt;/span&gt;&lt;span style=&quot;font-size:13.1px;font-style: italic;text-decoration: underline;&quot;&gt;userDataValidatorInstance&lt;/span&gt; : UserDataValidator&lt;/span&gt;&lt;/span&gt;&lt;/div&gt;" style="part=1;html=1;resizeHeight=0;strokeColor=none;fillColor=none;align=left;verticalAlign=middle;spacingLeft=4;spacingRight=4;overflow=hidden;rotatable=0;points=[[0,0.5],[1,0.5]];portConstraint=eastwest;swimlaneFillColor=#ffffff;strokeOpacity=100;whiteSpace=wrap;fontSize=13.1;fontStyle=6;" vertex="1" parent="7sSd0tKmP4TyFzPP-oEi-110">
          <mxGeometry y="25" width="413" height="122" as="geometry" />
        </mxCell>
        <mxCell id="7sSd0tKmP4TyFzPP-oEi-112" value="" style="line;strokeWidth=1;fillColor=none;align=left;verticalAlign=middle;spacingTop=-1;spacingLeft=3;spacingRight=3;rotatable=0;labelPosition=right;points=[];portConstraint=eastwest;" vertex="1" parent="7sSd0tKmP4TyFzPP-oEi-110">
          <mxGeometry y="147" width="413" height="8" as="geometry" />
        </mxCell>
        <mxCell id="7sSd0tKmP4TyFzPP-oEi-113" value="&lt;div style=&quot;display: flex; justify-content: center; text-align: center; align-items: baseline; font-size: 0; line-height: 1.25;margin-top: -2px;&quot;&gt;&lt;span&gt;&lt;span style=&quot;font-size:13.1px;&quot;&gt;&lt;span style=&quot;font-size:13.1px;&quot;&gt;- UserDataValidator()&lt;/span&gt;&lt;span style=&quot;font-size:13.1px;color:#bcbec4;&quot;&gt;&#xa;&lt;/span&gt;&lt;span style=&quot;font-size:13.1px;&quot;&gt;+ &lt;/span&gt;&lt;span style=&quot;font-size:13.1px;text-decoration: underline;&quot;&gt;getInstance() : UserDataValidator &#xa;&lt;/span&gt;+ isValidName(name : String ) : boolean &#xa;+ isValidMobileNumber(mobileNumber : String , choice : String ) : boolean &#xa;+ isValidPassword(password : String ) : boolean &#xa;+ isValidEmail(emailId : String ) : boolean &#xa;+ isValidMobileNumber(mobileNumber : String , choice : String ) : boolean &lt;/span&gt;&lt;/span&gt;&lt;/div&gt;" style="part=1;resizeHeight=0;strokeColor=none;fillColor=none;align=left;verticalAlign=middle;spacingLeft=4;spacingRight=4;rotatable=0;points=[[0,0.5],[1,0.5]];portConstraint=eastwest;swimlaneFillColor=#ffffff;strokeOpacity=100;whiteSpace=wrap;overflow=block;blockSpacing=1;html=1;fontSize=13;" vertex="1" parent="7sSd0tKmP4TyFzPP-oEi-110">
          <mxGeometry y="155" width="413" height="155.25" as="geometry" />
        </mxCell>
        <mxCell id="7sSd0tKmP4TyFzPP-oEi-114" value="FilterMenuView" style="html=1;overflow=block;blockSpacing=1;swimlane;childLayout=stackLayout;horizontal=1;horizontalStack=0;resizeParent=1;resizeParentMax=0;resizeLast=0;collapsible=0;fontStyle=0;marginBottom=0;swimlaneFillColor=#ffffff;startSize=25;whiteSpace=wrap;fontSize=16.7;align=left;spacing=0;strokeColor=#3a414a;strokeOpacity=100;rounded=1;absoluteArcSize=1;arcSize=9;strokeWidth=0.8;" vertex="1" parent="WIyWlLk6GJQsqaUBKTNV-1">
          <mxGeometry x="-3975" y="-1920" width="420" height="282" as="geometry" />
        </mxCell>
        <mxCell id="7sSd0tKmP4TyFzPP-oEi-115" value="&lt;div style=&quot;display: flex; justify-content: center; text-align: center; align-items: baseline; font-size: 0; line-height: 1.25;margin-top: -2px;&quot;&gt;&lt;span&gt;&lt;span style=&quot;font-size:13.1px;&quot;&gt;&lt;span style=&quot;font-size:13.1px;&quot;&gt;- &lt;/span&gt;&lt;span style=&quot;font-size:13.1px;font-style: italic;text-decoration: underline;&quot;&gt;SCANNER : &lt;/span&gt;Scanner&lt;/span&gt;&lt;span style=&quot;font-size:13.1px;&quot;&gt; &lt;/span&gt;&lt;span style=&quot;font-size:13.1px;font-style: italic;&quot;&gt;&#xa;&lt;/span&gt;&lt;span style=&quot;font-size:13.1px;&quot;&gt;- &lt;/span&gt;&lt;span style=&quot;font-size:13.1px;font-style: italic;text-decoration: underline;&quot;&gt;CART_VIEW : &lt;/span&gt;&lt;span style=&quot;font-size:13.1px;text-decoration: underline;&quot;&gt;CartView &lt;/span&gt;&amp;lt;span style=&quot;font-size:13px;&quot;&amp;gt; &lt;/span&gt;&lt;span style=&quot;font-size:13.1px;&quot;&gt; &lt;/span&gt;&lt;span style=&quot;font-size:13.1px;font-style: italic;&quot;&gt;&#xa;&lt;/span&gt;&lt;span style=&quot;font-size:13.1px;&quot;&gt;- &lt;/span&gt;&lt;span style=&quot;font-size:13.1px;font-style: italic;text-decoration: underline;&quot;&gt;WISHLIST_VIEW : &lt;/span&gt;&lt;span style=&quot;font-size:13.1px;text-decoration: underline;&quot;&gt;WishlistView &lt;/span&gt;&lt;span style=&quot;font-size:13.1px;font-style: italic;&quot;&gt;&#xa;&lt;/span&gt;&lt;span style=&quot;font-size:13.1px;&quot;&gt;- &lt;/span&gt;&lt;span style=&quot;font-size:13.1px;font-style: italic;text-decoration: underline;&quot;&gt;filterMenuViewInstance : &lt;/span&gt;&lt;span style=&quot;font-size:13.1px;text-decoration: underline;&quot;&gt;FilterMenuView&lt;/span&gt;&lt;/span&gt;&lt;/div&gt;" style="part=1;html=1;resizeHeight=0;strokeColor=none;fillColor=none;align=left;verticalAlign=middle;spacingLeft=4;spacingRight=4;overflow=hidden;rotatable=0;points=[[0,0.5],[1,0.5]];portConstraint=eastwest;swimlaneFillColor=#ffffff;strokeOpacity=100;whiteSpace=wrap;fontSize=13.1;fontStyle=6;" vertex="1" parent="7sSd0tKmP4TyFzPP-oEi-114">
          <mxGeometry y="25" width="420" height="115" as="geometry" />
        </mxCell>
        <mxCell id="7sSd0tKmP4TyFzPP-oEi-116" value="" style="line;strokeWidth=1;fillColor=none;align=left;verticalAlign=middle;spacingTop=-1;spacingLeft=3;spacingRight=3;rotatable=0;labelPosition=right;points=[];portConstraint=eastwest;" vertex="1" parent="7sSd0tKmP4TyFzPP-oEi-114">
          <mxGeometry y="140" width="420" height="8" as="geometry" />
        </mxCell>
        <mxCell id="7sSd0tKmP4TyFzPP-oEi-117" value="&lt;div style=&quot;display: flex; justify-content: center; text-align: center; align-items: baseline; font-size: 0; line-height: 1.25;margin-top: -2px;&quot;&gt;&lt;span&gt;&lt;span style=&quot;font-size:13.1px;&quot;&gt;&lt;span style=&quot;font-size:13.1px;&quot;&gt;- FilterMenuView()&#xa;+ &lt;/span&gt;&lt;span style=&quot;font-size:13.1px;text-decoration: underline;&quot;&gt;getInstance() : FilterMenuView &#xa;&lt;/span&gt;+ showFilterMenu(user : User , inventoryItems : List&amp;lt;Product&amp;gt; ) : void&#xa;+ addItemToCartOrWishlist(item : Product , user : User ) : void&#xa;+ getSelectedItem(items : List&amp;lt;Product&amp;gt;) : Product &#xa;+ showItems(items : List&amp;lt;Product&amp;gt;) : void&lt;/span&gt;&lt;/span&gt;&lt;/div&gt;" style="part=1;resizeHeight=0;strokeColor=none;fillColor=none;align=left;verticalAlign=middle;spacingLeft=4;spacingRight=4;rotatable=0;points=[[0,0.5],[1,0.5]];portConstraint=eastwest;swimlaneFillColor=#ffffff;strokeOpacity=100;whiteSpace=wrap;overflow=block;blockSpacing=1;html=1;fontSize=13;" vertex="1" parent="7sSd0tKmP4TyFzPP-oEi-114">
          <mxGeometry y="148" width="420" height="134" as="geometry" />
        </mxCell>
        <mxCell id="7sSd0tKmP4TyFzPP-oEi-118" value="HomePageView" style="html=1;overflow=block;blockSpacing=1;swimlane;childLayout=stackLayout;horizontal=1;horizontalStack=0;resizeParent=1;resizeParentMax=0;resizeLast=0;collapsible=0;fontStyle=0;marginBottom=0;swimlaneFillColor=#ffffff;startSize=25;whiteSpace=wrap;fontSize=16.7;align=left;spacing=0;strokeColor=#3a414a;strokeOpacity=100;rounded=1;absoluteArcSize=1;arcSize=9;strokeWidth=0.8;" vertex="1" parent="WIyWlLk6GJQsqaUBKTNV-1">
          <mxGeometry x="-3285" y="-1875" width="480" height="398.5" as="geometry" />
        </mxCell>
        <mxCell id="7sSd0tKmP4TyFzPP-oEi-119" value="&lt;div style=&quot;display: flex; justify-content: center; text-align: center; align-items: baseline; font-size: 0; line-height: 1.25;margin-top: -2px;&quot;&gt;&lt;span&gt;&lt;span style=&quot;font-size:13.1px;&quot;&gt;&lt;span style=&quot;font-size:13.1px;&quot;&gt;- &lt;/span&gt;&lt;span style=&quot;font-size:13.1px;font-style: italic;text-decoration: underline;&quot;&gt;SCANNER : &lt;/span&gt;&lt;span style=&quot;font-size:13.1px;text-decoration: underline;&quot;&gt;Scanner&lt;/span&gt;&lt;span style=&quot;font-size:13.1px;font-style: italic;text-decoration: underline;&quot;&gt;&#xa;&lt;/span&gt;&lt;span style=&quot;font-size:13.1px;&quot;&gt;- &lt;/span&gt;&lt;span style=&quot;font-size:13.1px;font-style: italic;text-decoration: underline;&quot;&gt;CART_VIEW : &lt;/span&gt;CartView &#xa;&lt;/span&gt;&lt;span style=&quot;font-size:13.1px;&quot;&gt;- &lt;/span&gt;&lt;span style=&quot;font-size:13.1px;font-style: italic;text-decoration: underline;&quot;&gt;WISHLIST_VIEW : &lt;/span&gt;&lt;span style=&quot;font-size:13.1px;text-decoration: underline;&quot;&gt;WishlistView &#xa;- &lt;/span&gt;&amp;lt;span style=&quot;font-size:13px;&quot;&amp;gt;- &lt;/span&gt;&lt;span style=&quot;font-size:13.1px;&quot;&gt;- &lt;/span&gt;&lt;span style=&quot;font-size:13.1px;font-style: italic;text-decoration: underline;&quot;&gt;ORDER_VIEW : &lt;/span&gt;&lt;span style=&quot;font-size:13.1px;text-decoration: underline;&quot;&gt;OrderView&#xa;- &lt;/span&gt;&amp;lt;span style=&quot;font-size:13px;&quot;&amp;gt;- &lt;/span&gt;&lt;span style=&quot;font-size:13.1px;&quot;&gt;- &lt;/span&gt;&lt;span style=&quot;font-size:13.1px;font-style: italic;text-decoration: underline;&quot;&gt;FILTER_MENU_VIEW : &lt;/span&gt;&lt;span style=&quot;font-size:13.1px;text-decoration: underline;&quot;&gt;FilterMenuView &#xa;- &lt;/span&gt;&amp;lt;span style=&quot;font-size:13px;&quot;&amp;gt;- &lt;/span&gt;&lt;span style=&quot;font-size:13.1px;&quot;&gt;- &lt;/span&gt;&lt;span style=&quot;font-size:13.1px;font-style: italic;text-decoration: underline;&quot;&gt;USER_VIEW : &lt;/span&gt;&lt;span style=&quot;font-size:13.1px;text-decoration: underline;&quot;&gt;UserView &#xa;- &lt;/span&gt;&amp;lt;span style=&quot;font-size:13px;&quot;&amp;gt;- &lt;/span&gt;&lt;span style=&quot;font-size:13.1px;&quot;&gt;- &lt;/span&gt;&lt;span style=&quot;font-size:13.1px;font-style: italic;text-decoration: underline;&quot;&gt;homePageViewInstance : &lt;/span&gt;&lt;span style=&quot;font-size:13.1px;text-decoration: underline;&quot;&gt;HomePageView&#xa;- &lt;/span&gt;&amp;lt;span style=&quot;font-size:13px;&quot;&amp;gt;- &lt;/span&gt;&lt;span style=&quot;font-size:13.1px;&quot;&gt;- &lt;/span&gt;&lt;span style=&quot;font-size:13.1px;font-style: italic;text-decoration: underline;&quot;&gt;INVENTORY_MANAGER : &lt;/span&gt;&lt;span style=&quot;font-size:13.1px;text-decoration: underline;&quot;&gt;InventoryManager&#xa;- &lt;/span&gt;&amp;lt;span style=&quot;font-size:13px;&quot;&amp;gt;- &lt;/span&gt;&lt;span style=&quot;font-size:13.1px;&quot;&gt;- &lt;/span&gt;&lt;span style=&quot;font-size:13.1px;font-style: italic;text-decoration: underline;&quot;&gt;INVENTORY_CONTROLLER &lt;/span&gt;&lt;span style=&quot;font-size:13.1px;text-decoration: underline;&quot;&gt;InventoryController&#xa;- mobiles : List&amp;lt;Product&amp;gt;&#xa;- laptops : List&amp;lt;Product&amp;gt;&#xa;- clothes : List&amp;lt;Product&amp;gt; &lt;/span&gt;&amp;lt;span style=&quot;font-size:13px;&quot;&amp;gt;&#xa;- mobiles : List&amp;lt;Product&amp;gt;&#xa;- laptops : List&amp;lt;Product&amp;gt;&#xa;- clothes : List&amp;lt;Product&amp;gt; &lt;/span&gt;&lt;span style=&quot;font-size:13.1px;&quot;&gt;&#xa;- mobiles : List&amp;lt;Product&amp;gt;&#xa;- laptops : List&amp;lt;Product&amp;gt;&#xa;- clothes : List&amp;lt;Product&amp;gt; &lt;/span&gt;&lt;/span&gt;&lt;/div&gt;" style="part=1;html=1;resizeHeight=0;strokeColor=none;fillColor=none;align=left;verticalAlign=middle;spacingLeft=4;spacingRight=4;overflow=hidden;rotatable=0;points=[[0,0.5],[1,0.5]];portConstraint=eastwest;swimlaneFillColor=#ffffff;strokeOpacity=100;whiteSpace=wrap;fontSize=13.1;fontStyle=6;" vertex="1" parent="7sSd0tKmP4TyFzPP-oEi-118">
          <mxGeometry y="25" width="480" height="176" as="geometry" />
        </mxCell>
        <mxCell id="7sSd0tKmP4TyFzPP-oEi-120" value="" style="line;strokeWidth=1;fillColor=none;align=left;verticalAlign=middle;spacingTop=-1;spacingLeft=3;spacingRight=3;rotatable=0;labelPosition=right;points=[];portConstraint=eastwest;" vertex="1" parent="7sSd0tKmP4TyFzPP-oEi-118">
          <mxGeometry y="201" width="480" height="8" as="geometry" />
        </mxCell>
        <mxCell id="7sSd0tKmP4TyFzPP-oEi-121" value="&lt;div style=&quot;display: flex; justify-content: center; text-align: center; align-items: baseline; font-size: 0; line-height: 1.25;margin-top: -2px;&quot;&gt;&lt;span&gt;&lt;span style=&quot;font-size:13.1px;&quot;&gt;&lt;span style=&quot;font-size:13.1px;&quot;&gt;- HomePageView()&#xa;+ &lt;/span&gt;&lt;span style=&quot;font-size:13.1px;text-decoration: underline;&quot;&gt;getInstance() : HomePageView &#xa;&lt;/span&gt;+ showHomePage(user : User ) : void&#xa;- addToCartOrWishlist(user : User , items : List&amp;lt;Product&amp;gt;) : void&#xa;- getItemsFromInventory(inventory : Map&amp;lt;String, List&amp;lt;Product&amp;gt;&amp;gt;) : List&amp;lt;Product&amp;gt; &lt;/span&gt;&lt;/span&gt;&lt;/div&gt;" style="part=1;resizeHeight=0;strokeColor=none;fillColor=none;align=left;verticalAlign=middle;spacingLeft=4;spacingRight=4;rotatable=0;points=[[0,0.5],[1,0.5]];portConstraint=eastwest;swimlaneFillColor=#ffffff;strokeOpacity=100;whiteSpace=wrap;overflow=block;blockSpacing=1;html=1;fontSize=13;" vertex="1" parent="7sSd0tKmP4TyFzPP-oEi-118">
          <mxGeometry y="209" width="480" height="189.5" as="geometry" />
        </mxCell>
        <mxCell id="7sSd0tKmP4TyFzPP-oEi-122" value="Product" style="html=1;overflow=block;blockSpacing=1;swimlane;childLayout=stackLayout;horizontal=1;horizontalStack=0;resizeParent=1;resizeParentMax=0;resizeLast=0;collapsible=0;fontStyle=0;marginBottom=0;swimlaneFillColor=#ffffff;startSize=25;whiteSpace=wrap;fontSize=16.7;align=left;spacing=0;strokeColor=#3a414a;strokeOpacity=100;rounded=1;absoluteArcSize=1;arcSize=9;strokeWidth=0.8;" vertex="1" parent="WIyWlLk6GJQsqaUBKTNV-1">
          <mxGeometry x="-757" y="-2790" width="345" height="215" as="geometry" />
        </mxCell>
        <mxCell id="7sSd0tKmP4TyFzPP-oEi-123" value="- productId : int&#xa;- productType : String&#xa;- price :  float&#xa;- brandName : String" style="part=1;html=1;resizeHeight=0;strokeColor=none;fillColor=none;align=left;verticalAlign=middle;spacingLeft=4;spacingRight=4;overflow=hidden;rotatable=0;points=[[0,0.5],[1,0.5]];portConstraint=eastwest;swimlaneFillColor=#ffffff;strokeOpacity=100;whiteSpace=wrap;fontSize=13.1;" vertex="1" parent="7sSd0tKmP4TyFzPP-oEi-122">
          <mxGeometry y="25" width="345" height="102" as="geometry" />
        </mxCell>
        <mxCell id="7sSd0tKmP4TyFzPP-oEi-124" value="" style="line;strokeWidth=1;fillColor=none;align=left;verticalAlign=middle;spacingTop=-1;spacingLeft=3;spacingRight=3;rotatable=0;labelPosition=right;points=[];portConstraint=eastwest;" vertex="1" parent="7sSd0tKmP4TyFzPP-oEi-122">
          <mxGeometry y="127" width="345" height="8" as="geometry" />
        </mxCell>
        <mxCell id="7sSd0tKmP4TyFzPP-oEi-125" value="+ Product(productType : String , price : float , brandName : String )&#xa;+ getProductType() : String &#xa;+ getPrice() : float   &#xa;+ getBrandName() : String &#xa;+ changePrice(price : float ) : void&#xa;+ getProductId() : int" style="part=1;html=1;resizeHeight=0;strokeColor=none;fillColor=none;align=left;verticalAlign=middle;spacingLeft=4;spacingRight=4;overflow=hidden;rotatable=0;points=[[0,0.5],[1,0.5]];portConstraint=eastwest;swimlaneFillColor=#ffffff;strokeOpacity=100;whiteSpace=wrap;fontSize=13.1;" vertex="1" parent="7sSd0tKmP4TyFzPP-oEi-122">
          <mxGeometry y="135" width="345" height="80" as="geometry" />
        </mxCell>
        <mxCell id="7sSd0tKmP4TyFzPP-oEi-126" value="Mobile" style="html=1;overflow=block;blockSpacing=1;swimlane;childLayout=stackLayout;horizontal=1;horizontalStack=0;resizeParent=1;resizeParentMax=0;resizeLast=0;collapsible=0;fontStyle=0;marginBottom=0;swimlaneFillColor=#ffffff;startSize=25;whiteSpace=wrap;fontSize=16.7;align=left;spacing=0;strokeColor=#3a414a;strokeOpacity=100;rounded=1;absoluteArcSize=1;arcSize=9;strokeWidth=0.8;" vertex="1" parent="WIyWlLk6GJQsqaUBKTNV-1">
          <mxGeometry x="-1492" y="-2340" width="270" height="170.25" as="geometry" />
        </mxCell>
        <mxCell id="7sSd0tKmP4TyFzPP-oEi-127" value="- model : String " style="part=1;html=1;resizeHeight=0;strokeColor=none;fillColor=none;align=left;verticalAlign=middle;spacingLeft=4;spacingRight=4;overflow=hidden;rotatable=0;points=[[0,0.5],[1,0.5]];portConstraint=eastwest;swimlaneFillColor=#ffffff;strokeOpacity=100;whiteSpace=wrap;fontSize=13.1;" vertex="1" parent="7sSd0tKmP4TyFzPP-oEi-126">
          <mxGeometry y="25" width="270" height="63" as="geometry" />
        </mxCell>
        <mxCell id="7sSd0tKmP4TyFzPP-oEi-128" value="" style="line;strokeWidth=1;fillColor=none;align=left;verticalAlign=middle;spacingTop=-1;spacingLeft=3;spacingRight=3;rotatable=0;labelPosition=right;points=[];portConstraint=eastwest;" vertex="1" parent="7sSd0tKmP4TyFzPP-oEi-126">
          <mxGeometry y="88" width="270" height="8" as="geometry" />
        </mxCell>
        <mxCell id="7sSd0tKmP4TyFzPP-oEi-129" value="+ Mobile(brandName : String, model : String , price : float)&#xa;+ getModel() : String " style="part=1;html=1;resizeHeight=0;strokeColor=none;fillColor=none;align=left;verticalAlign=middle;spacingLeft=4;spacingRight=4;overflow=hidden;rotatable=0;points=[[0,0.5],[1,0.5]];portConstraint=eastwest;swimlaneFillColor=#ffffff;strokeOpacity=100;whiteSpace=wrap;fontSize=13.1;" vertex="1" parent="7sSd0tKmP4TyFzPP-oEi-126">
          <mxGeometry y="96" width="270" height="74.25" as="geometry" />
        </mxCell>
        <mxCell id="7sSd0tKmP4TyFzPP-oEi-130" value="Laptop" style="html=1;overflow=block;blockSpacing=1;swimlane;childLayout=stackLayout;horizontal=1;horizontalStack=0;resizeParent=1;resizeParentMax=0;resizeLast=0;collapsible=0;fontStyle=0;marginBottom=0;swimlaneFillColor=#ffffff;startSize=25;whiteSpace=wrap;fontSize=16.7;align=left;spacing=0;strokeColor=#3a414a;strokeOpacity=100;rounded=1;absoluteArcSize=1;arcSize=9;strokeWidth=0.8;" vertex="1" parent="WIyWlLk6GJQsqaUBKTNV-1">
          <mxGeometry x="-727" y="-2340" width="285" height="169.5" as="geometry" />
        </mxCell>
        <mxCell id="7sSd0tKmP4TyFzPP-oEi-131" value="- model : String " style="part=1;html=1;resizeHeight=0;strokeColor=none;fillColor=none;align=left;verticalAlign=middle;spacingLeft=4;spacingRight=4;overflow=hidden;rotatable=0;points=[[0,0.5],[1,0.5]];portConstraint=eastwest;swimlaneFillColor=#ffffff;strokeOpacity=100;whiteSpace=wrap;fontSize=13.1;" vertex="1" parent="7sSd0tKmP4TyFzPP-oEi-130">
          <mxGeometry y="25" width="285" height="63" as="geometry" />
        </mxCell>
        <mxCell id="7sSd0tKmP4TyFzPP-oEi-132" value="" style="line;strokeWidth=1;fillColor=none;align=left;verticalAlign=middle;spacingTop=-1;spacingLeft=3;spacingRight=3;rotatable=0;labelPosition=right;points=[];portConstraint=eastwest;" vertex="1" parent="7sSd0tKmP4TyFzPP-oEi-130">
          <mxGeometry y="88" width="285" height="8" as="geometry" />
        </mxCell>
        <mxCell id="7sSd0tKmP4TyFzPP-oEi-133" value="+ Laptop(brandName : String, model : String , price : float)&#xa;+ getModel() : String " style="part=1;html=1;resizeHeight=0;strokeColor=none;fillColor=none;align=left;verticalAlign=middle;spacingLeft=4;spacingRight=4;overflow=hidden;rotatable=0;points=[[0,0.5],[1,0.5]];portConstraint=eastwest;swimlaneFillColor=#ffffff;strokeOpacity=100;whiteSpace=wrap;fontSize=13.1;" vertex="1" parent="7sSd0tKmP4TyFzPP-oEi-130">
          <mxGeometry y="96" width="285" height="73.5" as="geometry" />
        </mxCell>
        <mxCell id="7sSd0tKmP4TyFzPP-oEi-134" value="Clothes" style="html=1;overflow=block;blockSpacing=1;swimlane;childLayout=stackLayout;horizontal=1;horizontalStack=0;resizeParent=1;resizeParentMax=0;resizeLast=0;collapsible=0;fontStyle=0;marginBottom=0;swimlaneFillColor=#ffffff;startSize=25;whiteSpace=wrap;fontSize=16.7;align=left;spacing=0;strokeColor=#3a414a;strokeOpacity=100;rounded=1;absoluteArcSize=1;arcSize=9;strokeWidth=0.8;" vertex="1" parent="WIyWlLk6GJQsqaUBKTNV-1">
          <mxGeometry x="-7" y="-2325" width="255" height="183" as="geometry" />
        </mxCell>
        <mxCell id="7sSd0tKmP4TyFzPP-oEi-135" value="- gender : String&#xa;-  size : String&#xa;- clothesType : String" style="part=1;html=1;resizeHeight=0;strokeColor=none;fillColor=none;align=left;verticalAlign=middle;spacingLeft=4;spacingRight=4;overflow=hidden;rotatable=0;points=[[0,0.5],[1,0.5]];portConstraint=eastwest;swimlaneFillColor=#ffffff;strokeOpacity=100;whiteSpace=wrap;fontSize=13.1;" vertex="1" parent="7sSd0tKmP4TyFzPP-oEi-134">
          <mxGeometry y="25" width="255" height="86" as="geometry" />
        </mxCell>
        <mxCell id="7sSd0tKmP4TyFzPP-oEi-136" value="" style="line;strokeWidth=1;fillColor=none;align=left;verticalAlign=middle;spacingTop=-1;spacingLeft=3;spacingRight=3;rotatable=0;labelPosition=right;points=[];portConstraint=eastwest;" vertex="1" parent="7sSd0tKmP4TyFzPP-oEi-134">
          <mxGeometry y="111" width="255" height="8" as="geometry" />
        </mxCell>
        <mxCell id="7sSd0tKmP4TyFzPP-oEi-137" value="+ Clothes(clothesType : String, gender : String, size : String , price : float,  brandName : String)&#xa;+ getClothesType() : String&#xa;+  getGender() : String&#xa;+ getSize() : String " style="part=1;html=1;resizeHeight=0;strokeColor=none;fillColor=none;align=left;verticalAlign=middle;spacingLeft=4;spacingRight=4;overflow=hidden;rotatable=0;points=[[0,0.5],[1,0.5]];portConstraint=eastwest;swimlaneFillColor=#ffffff;strokeOpacity=100;whiteSpace=wrap;fontSize=13.1;" vertex="1" parent="7sSd0tKmP4TyFzPP-oEi-134">
          <mxGeometry y="119" width="255" height="64" as="geometry" />
        </mxCell>
        <mxCell id="7sSd0tKmP4TyFzPP-oEi-138" value="" style="html=1;jettySize=18;whiteSpace=wrap;overflow=block;blockSpacing=1;fontSize=13;strokeColor=#3a414a;strokeOpacity=100;strokeWidth=0.8;rounded=1;arcSize=12;edgeStyle=orthogonalEdgeStyle;startArrow=none;endArrow=block;endFill=0;exitX=0.5;exitY=-0.002;exitPerimeter=0;entryX=0.5;entryY=1.002;entryPerimeter=0;lucidId=FcJRYPifmQc7;" edge="1" parent="WIyWlLk6GJQsqaUBKTNV-1" source="7sSd0tKmP4TyFzPP-oEi-126" target="7sSd0tKmP4TyFzPP-oEi-122">
          <mxGeometry width="100" height="100" relative="1" as="geometry">
            <Array as="points" />
          </mxGeometry>
        </mxCell>
        <mxCell id="7sSd0tKmP4TyFzPP-oEi-139" value="" style="html=1;jettySize=18;whiteSpace=wrap;overflow=block;blockSpacing=1;fontSize=13;strokeColor=#3a414a;strokeOpacity=100;strokeWidth=0.8;rounded=1;arcSize=12;edgeStyle=orthogonalEdgeStyle;startArrow=none;endArrow=block;endFill=0;exitX=0.5;exitY=-0.002;exitPerimeter=0;entryX=0.5;entryY=1.002;entryPerimeter=0;lucidId=XcJReBeQb8BI;" edge="1" parent="WIyWlLk6GJQsqaUBKTNV-1" source="7sSd0tKmP4TyFzPP-oEi-130" target="7sSd0tKmP4TyFzPP-oEi-122">
          <mxGeometry width="100" height="100" relative="1" as="geometry">
            <Array as="points" />
          </mxGeometry>
        </mxCell>
        <mxCell id="7sSd0tKmP4TyFzPP-oEi-140" value="" style="html=1;jettySize=18;whiteSpace=wrap;overflow=block;blockSpacing=1;fontSize=13;strokeColor=#3a414a;strokeOpacity=100;strokeWidth=0.8;rounded=1;arcSize=12;edgeStyle=orthogonalEdgeStyle;startArrow=none;endArrow=block;endFill=0;exitX=0.5;exitY=-0.002;exitPerimeter=0;entryX=0.5;entryY=1.002;entryPerimeter=0;lucidId=xdJR2~0f1N8~;" edge="1" parent="WIyWlLk6GJQsqaUBKTNV-1" source="7sSd0tKmP4TyFzPP-oEi-134" target="7sSd0tKmP4TyFzPP-oEi-122">
          <mxGeometry width="100" height="100" relative="1" as="geometry">
            <Array as="points" />
          </mxGeometry>
        </mxCell>
        <mxCell id="7sSd0tKmP4TyFzPP-oEi-141" value="OppoMobile" style="html=1;overflow=block;blockSpacing=1;swimlane;childLayout=stackLayout;horizontal=1;horizontalStack=0;resizeParent=1;resizeParentMax=0;resizeLast=0;collapsible=0;fontStyle=0;marginBottom=0;swimlaneFillColor=#ffffff;startSize=25;whiteSpace=wrap;fontSize=16.7;align=left;spacing=0;strokeColor=#3a414a;strokeOpacity=100;rounded=1;absoluteArcSize=1;arcSize=9;strokeWidth=0.8;" vertex="1" parent="WIyWlLk6GJQsqaUBKTNV-1">
          <mxGeometry x="-1762" y="-2085" width="270" height="145.25" as="geometry" />
        </mxCell>
        <mxCell id="7sSd0tKmP4TyFzPP-oEi-142" value="" style="part=1;html=1;resizeHeight=0;strokeColor=none;fillColor=none;align=left;verticalAlign=middle;spacingLeft=4;spacingRight=4;overflow=hidden;rotatable=0;points=[[0,0.5],[1,0.5]];portConstraint=eastwest;swimlaneFillColor=#ffffff;strokeOpacity=100;whiteSpace=wrap;fontSize=13;" vertex="1" parent="7sSd0tKmP4TyFzPP-oEi-141">
          <mxGeometry y="25" width="270" height="50" as="geometry" />
        </mxCell>
        <mxCell id="7sSd0tKmP4TyFzPP-oEi-143" value="" style="line;strokeWidth=1;fillColor=none;align=left;verticalAlign=middle;spacingTop=-1;spacingLeft=3;spacingRight=3;rotatable=0;labelPosition=right;points=[];portConstraint=eastwest;" vertex="1" parent="7sSd0tKmP4TyFzPP-oEi-141">
          <mxGeometry y="75" width="270" height="8" as="geometry" />
        </mxCell>
        <mxCell id="7sSd0tKmP4TyFzPP-oEi-144" value="+ OppoMobile(model : String , price :  float)" style="part=1;html=1;resizeHeight=0;strokeColor=none;fillColor=none;align=left;verticalAlign=middle;spacingLeft=4;spacingRight=4;overflow=hidden;rotatable=0;points=[[0,0.5],[1,0.5]];portConstraint=eastwest;swimlaneFillColor=#ffffff;strokeOpacity=100;whiteSpace=wrap;fontSize=13.1;" vertex="1" parent="7sSd0tKmP4TyFzPP-oEi-141">
          <mxGeometry y="83" width="270" height="62.25" as="geometry" />
        </mxCell>
        <mxCell id="7sSd0tKmP4TyFzPP-oEi-145" value="RealmeMobile" style="html=1;overflow=block;blockSpacing=1;swimlane;childLayout=stackLayout;horizontal=1;horizontalStack=0;resizeParent=1;resizeParentMax=0;resizeLast=0;collapsible=0;fontStyle=0;marginBottom=0;swimlaneFillColor=#ffffff;startSize=25;whiteSpace=wrap;fontSize=16.7;align=left;spacing=0;strokeColor=#3a414a;strokeOpacity=100;rounded=1;absoluteArcSize=1;arcSize=9;strokeWidth=0.8;" vertex="1" parent="WIyWlLk6GJQsqaUBKTNV-1">
          <mxGeometry x="-1312" y="-2085" width="270" height="160.25" as="geometry" />
        </mxCell>
        <mxCell id="7sSd0tKmP4TyFzPP-oEi-146" value="" style="part=1;html=1;resizeHeight=0;strokeColor=none;fillColor=none;align=left;verticalAlign=middle;spacingLeft=4;spacingRight=4;overflow=hidden;rotatable=0;points=[[0,0.5],[1,0.5]];portConstraint=eastwest;swimlaneFillColor=#ffffff;strokeOpacity=100;whiteSpace=wrap;fontSize=13;" vertex="1" parent="7sSd0tKmP4TyFzPP-oEi-145">
          <mxGeometry y="25" width="270" height="58" as="geometry" />
        </mxCell>
        <mxCell id="7sSd0tKmP4TyFzPP-oEi-147" value="" style="line;strokeWidth=1;fillColor=none;align=left;verticalAlign=middle;spacingTop=-1;spacingLeft=3;spacingRight=3;rotatable=0;labelPosition=right;points=[];portConstraint=eastwest;" vertex="1" parent="7sSd0tKmP4TyFzPP-oEi-145">
          <mxGeometry y="83" width="270" height="8" as="geometry" />
        </mxCell>
        <mxCell id="7sSd0tKmP4TyFzPP-oEi-148" value="+ RealmeMobile(model : String , price :  float)" style="part=1;html=1;resizeHeight=0;strokeColor=none;fillColor=none;align=left;verticalAlign=middle;spacingLeft=4;spacingRight=4;overflow=hidden;rotatable=0;points=[[0,0.5],[1,0.5]];portConstraint=eastwest;swimlaneFillColor=#ffffff;strokeOpacity=100;whiteSpace=wrap;fontSize=13.1;" vertex="1" parent="7sSd0tKmP4TyFzPP-oEi-145">
          <mxGeometry y="91" width="270" height="69.25" as="geometry" />
        </mxCell>
        <mxCell id="7sSd0tKmP4TyFzPP-oEi-149" value="SamsungMobile" style="html=1;overflow=block;blockSpacing=1;swimlane;childLayout=stackLayout;horizontal=1;horizontalStack=0;resizeParent=1;resizeParentMax=0;resizeLast=0;collapsible=0;fontStyle=0;marginBottom=0;swimlaneFillColor=#ffffff;startSize=25;whiteSpace=wrap;fontSize=16.7;align=left;spacing=0;strokeColor=#3a414a;strokeOpacity=100;rounded=1;absoluteArcSize=1;arcSize=9;strokeWidth=0.8;" vertex="1" parent="WIyWlLk6GJQsqaUBKTNV-1">
          <mxGeometry x="-1537" y="-1912" width="270" height="160.25" as="geometry" />
        </mxCell>
        <mxCell id="7sSd0tKmP4TyFzPP-oEi-150" value="" style="part=1;html=1;resizeHeight=0;strokeColor=none;fillColor=none;align=left;verticalAlign=middle;spacingLeft=4;spacingRight=4;overflow=hidden;rotatable=0;points=[[0,0.5],[1,0.5]];portConstraint=eastwest;swimlaneFillColor=#ffffff;strokeOpacity=100;whiteSpace=wrap;fontSize=13;" vertex="1" parent="7sSd0tKmP4TyFzPP-oEi-149">
          <mxGeometry y="25" width="270" height="58" as="geometry" />
        </mxCell>
        <mxCell id="7sSd0tKmP4TyFzPP-oEi-151" value="" style="line;strokeWidth=1;fillColor=none;align=left;verticalAlign=middle;spacingTop=-1;spacingLeft=3;spacingRight=3;rotatable=0;labelPosition=right;points=[];portConstraint=eastwest;" vertex="1" parent="7sSd0tKmP4TyFzPP-oEi-149">
          <mxGeometry y="83" width="270" height="8" as="geometry" />
        </mxCell>
        <mxCell id="7sSd0tKmP4TyFzPP-oEi-152" value="+ SamsungMobile(model : String , price :  float)" style="part=1;html=1;resizeHeight=0;strokeColor=none;fillColor=none;align=left;verticalAlign=middle;spacingLeft=4;spacingRight=4;overflow=hidden;rotatable=0;points=[[0,0.5],[1,0.5]];portConstraint=eastwest;swimlaneFillColor=#ffffff;strokeOpacity=100;whiteSpace=wrap;fontSize=13.1;" vertex="1" parent="7sSd0tKmP4TyFzPP-oEi-149">
          <mxGeometry y="91" width="270" height="69.25" as="geometry" />
        </mxCell>
        <mxCell id="7sSd0tKmP4TyFzPP-oEi-153" value="" style="html=1;jettySize=18;whiteSpace=wrap;overflow=block;blockSpacing=1;fontSize=13;strokeColor=#3a414a;strokeOpacity=100;strokeWidth=0.8;rounded=1;arcSize=12;edgeStyle=orthogonalEdgeStyle;startArrow=none;endArrow=block;endFill=0;exitX=0.5;exitY=-0.003;exitPerimeter=0;entryX=0.5;entryY=1.002;entryPerimeter=0;lucidId=4gJRxVJW68uo;" edge="1" parent="WIyWlLk6GJQsqaUBKTNV-1" source="7sSd0tKmP4TyFzPP-oEi-141" target="7sSd0tKmP4TyFzPP-oEi-126">
          <mxGeometry width="100" height="100" relative="1" as="geometry">
            <Array as="points" />
          </mxGeometry>
        </mxCell>
        <mxCell id="7sSd0tKmP4TyFzPP-oEi-154" value="" style="html=1;jettySize=18;whiteSpace=wrap;overflow=block;blockSpacing=1;fontSize=13;strokeColor=#3a414a;strokeOpacity=100;strokeWidth=0.8;rounded=1;arcSize=12;edgeStyle=orthogonalEdgeStyle;startArrow=none;endArrow=block;endFill=0;exitX=0.5;exitY=-0.003;exitPerimeter=0;entryX=0.5;entryY=1.002;entryPerimeter=0;lucidId=8gJRfBXXU4GS;" edge="1" parent="WIyWlLk6GJQsqaUBKTNV-1" source="7sSd0tKmP4TyFzPP-oEi-149" target="7sSd0tKmP4TyFzPP-oEi-126">
          <mxGeometry width="100" height="100" relative="1" as="geometry">
            <Array as="points" />
          </mxGeometry>
        </mxCell>
        <mxCell id="7sSd0tKmP4TyFzPP-oEi-155" value="" style="html=1;jettySize=18;whiteSpace=wrap;overflow=block;blockSpacing=1;fontSize=13;strokeColor=#3a414a;strokeOpacity=100;strokeWidth=0.8;rounded=1;arcSize=12;edgeStyle=orthogonalEdgeStyle;startArrow=none;endArrow=block;endFill=0;exitX=0.5;exitY=-0.003;exitPerimeter=0;entryX=0.5;entryY=1.002;entryPerimeter=0;lucidId=.gJRLfX3s1~s;" edge="1" parent="WIyWlLk6GJQsqaUBKTNV-1" source="7sSd0tKmP4TyFzPP-oEi-145" target="7sSd0tKmP4TyFzPP-oEi-126">
          <mxGeometry width="100" height="100" relative="1" as="geometry">
            <Array as="points" />
          </mxGeometry>
        </mxCell>
        <mxCell id="7sSd0tKmP4TyFzPP-oEi-156" value="DellLaptop" style="html=1;overflow=block;blockSpacing=1;swimlane;childLayout=stackLayout;horizontal=1;horizontalStack=0;resizeParent=1;resizeParentMax=0;resizeLast=0;collapsible=0;fontStyle=0;marginBottom=0;swimlaneFillColor=#ffffff;startSize=25;whiteSpace=wrap;fontSize=16.7;align=left;spacing=0;strokeColor=#3a414a;strokeOpacity=100;rounded=1;absoluteArcSize=1;arcSize=9;strokeWidth=0.8;" vertex="1" parent="WIyWlLk6GJQsqaUBKTNV-1">
          <mxGeometry x="-967" y="-2070" width="270" height="145.25" as="geometry" />
        </mxCell>
        <mxCell id="7sSd0tKmP4TyFzPP-oEi-157" value="" style="part=1;html=1;resizeHeight=0;strokeColor=none;fillColor=none;align=left;verticalAlign=middle;spacingLeft=4;spacingRight=4;overflow=hidden;rotatable=0;points=[[0,0.5],[1,0.5]];portConstraint=eastwest;swimlaneFillColor=#ffffff;strokeOpacity=100;whiteSpace=wrap;fontSize=13;" vertex="1" parent="7sSd0tKmP4TyFzPP-oEi-156">
          <mxGeometry y="25" width="270" height="50" as="geometry" />
        </mxCell>
        <mxCell id="7sSd0tKmP4TyFzPP-oEi-158" value="" style="line;strokeWidth=1;fillColor=none;align=left;verticalAlign=middle;spacingTop=-1;spacingLeft=3;spacingRight=3;rotatable=0;labelPosition=right;points=[];portConstraint=eastwest;" vertex="1" parent="7sSd0tKmP4TyFzPP-oEi-156">
          <mxGeometry y="75" width="270" height="8" as="geometry" />
        </mxCell>
        <mxCell id="7sSd0tKmP4TyFzPP-oEi-159" value="+ DellLaptop(model : String , price :  float)" style="part=1;html=1;resizeHeight=0;strokeColor=none;fillColor=none;align=left;verticalAlign=middle;spacingLeft=4;spacingRight=4;overflow=hidden;rotatable=0;points=[[0,0.5],[1,0.5]];portConstraint=eastwest;swimlaneFillColor=#ffffff;strokeOpacity=100;whiteSpace=wrap;fontSize=13.1;" vertex="1" parent="7sSd0tKmP4TyFzPP-oEi-156">
          <mxGeometry y="83" width="270" height="62.25" as="geometry" />
        </mxCell>
        <mxCell id="7sSd0tKmP4TyFzPP-oEi-160" value="AcerLaptop" style="html=1;overflow=block;blockSpacing=1;swimlane;childLayout=stackLayout;horizontal=1;horizontalStack=0;resizeParent=1;resizeParentMax=0;resizeLast=0;collapsible=0;fontStyle=0;marginBottom=0;swimlaneFillColor=#ffffff;startSize=25;whiteSpace=wrap;fontSize=16.7;align=left;spacing=0;strokeColor=#3a414a;strokeOpacity=100;rounded=1;absoluteArcSize=1;arcSize=9;strokeWidth=0.8;" vertex="1" parent="WIyWlLk6GJQsqaUBKTNV-1">
          <mxGeometry x="-532" y="-2069" width="270" height="145.25" as="geometry" />
        </mxCell>
        <mxCell id="7sSd0tKmP4TyFzPP-oEi-161" value="" style="part=1;html=1;resizeHeight=0;strokeColor=none;fillColor=none;align=left;verticalAlign=middle;spacingLeft=4;spacingRight=4;overflow=hidden;rotatable=0;points=[[0,0.5],[1,0.5]];portConstraint=eastwest;swimlaneFillColor=#ffffff;strokeOpacity=100;whiteSpace=wrap;fontSize=13;" vertex="1" parent="7sSd0tKmP4TyFzPP-oEi-160">
          <mxGeometry y="25" width="270" height="50" as="geometry" />
        </mxCell>
        <mxCell id="7sSd0tKmP4TyFzPP-oEi-162" value="" style="line;strokeWidth=1;fillColor=none;align=left;verticalAlign=middle;spacingTop=-1;spacingLeft=3;spacingRight=3;rotatable=0;labelPosition=right;points=[];portConstraint=eastwest;" vertex="1" parent="7sSd0tKmP4TyFzPP-oEi-160">
          <mxGeometry y="75" width="270" height="8" as="geometry" />
        </mxCell>
        <mxCell id="7sSd0tKmP4TyFzPP-oEi-163" value="+ AcerLaptop(model : String , price :  float)" style="part=1;html=1;resizeHeight=0;strokeColor=none;fillColor=none;align=left;verticalAlign=middle;spacingLeft=4;spacingRight=4;overflow=hidden;rotatable=0;points=[[0,0.5],[1,0.5]];portConstraint=eastwest;swimlaneFillColor=#ffffff;strokeOpacity=100;whiteSpace=wrap;fontSize=13.1;" vertex="1" parent="7sSd0tKmP4TyFzPP-oEi-160">
          <mxGeometry y="83" width="270" height="62.25" as="geometry" />
        </mxCell>
        <mxCell id="7sSd0tKmP4TyFzPP-oEi-164" value="HpLaptop" style="html=1;overflow=block;blockSpacing=1;swimlane;childLayout=stackLayout;horizontal=1;horizontalStack=0;resizeParent=1;resizeParentMax=0;resizeLast=0;collapsible=0;fontStyle=0;marginBottom=0;swimlaneFillColor=#ffffff;startSize=25;whiteSpace=wrap;fontSize=16.7;align=left;spacing=0;strokeColor=#3a414a;strokeOpacity=100;rounded=1;absoluteArcSize=1;arcSize=9;strokeWidth=0.8;" vertex="1" parent="WIyWlLk6GJQsqaUBKTNV-1">
          <mxGeometry x="-720" y="-1897" width="270" height="145.25" as="geometry" />
        </mxCell>
        <mxCell id="7sSd0tKmP4TyFzPP-oEi-165" value="" style="part=1;html=1;resizeHeight=0;strokeColor=none;fillColor=none;align=left;verticalAlign=middle;spacingLeft=4;spacingRight=4;overflow=hidden;rotatable=0;points=[[0,0.5],[1,0.5]];portConstraint=eastwest;swimlaneFillColor=#ffffff;strokeOpacity=100;whiteSpace=wrap;fontSize=13;" vertex="1" parent="7sSd0tKmP4TyFzPP-oEi-164">
          <mxGeometry y="25" width="270" height="50" as="geometry" />
        </mxCell>
        <mxCell id="7sSd0tKmP4TyFzPP-oEi-166" value="" style="line;strokeWidth=1;fillColor=none;align=left;verticalAlign=middle;spacingTop=-1;spacingLeft=3;spacingRight=3;rotatable=0;labelPosition=right;points=[];portConstraint=eastwest;" vertex="1" parent="7sSd0tKmP4TyFzPP-oEi-164">
          <mxGeometry y="75" width="270" height="8" as="geometry" />
        </mxCell>
        <mxCell id="7sSd0tKmP4TyFzPP-oEi-167" value="+ HpLaptop(model : String , price :  float)" style="part=1;html=1;resizeHeight=0;strokeColor=none;fillColor=none;align=left;verticalAlign=middle;spacingLeft=4;spacingRight=4;overflow=hidden;rotatable=0;points=[[0,0.5],[1,0.5]];portConstraint=eastwest;swimlaneFillColor=#ffffff;strokeOpacity=100;whiteSpace=wrap;fontSize=13.1;" vertex="1" parent="7sSd0tKmP4TyFzPP-oEi-164">
          <mxGeometry y="83" width="270" height="62.25" as="geometry" />
        </mxCell>
        <mxCell id="7sSd0tKmP4TyFzPP-oEi-168" value="" style="html=1;jettySize=18;whiteSpace=wrap;overflow=block;blockSpacing=1;fontSize=13;strokeColor=#3a414a;strokeOpacity=100;strokeWidth=0.8;rounded=1;arcSize=12;edgeStyle=orthogonalEdgeStyle;startArrow=none;endArrow=block;endFill=0;exitX=0.5;exitY=-0.003;exitPerimeter=0;entryX=0.5;entryY=1.002;entryPerimeter=0;lucidId=RiJRI3Vdtj-a;" edge="1" parent="WIyWlLk6GJQsqaUBKTNV-1" source="7sSd0tKmP4TyFzPP-oEi-156" target="7sSd0tKmP4TyFzPP-oEi-130">
          <mxGeometry width="100" height="100" relative="1" as="geometry">
            <Array as="points" />
          </mxGeometry>
        </mxCell>
        <mxCell id="7sSd0tKmP4TyFzPP-oEi-169" value="" style="html=1;jettySize=18;whiteSpace=wrap;overflow=block;blockSpacing=1;fontSize=13;strokeColor=#3a414a;strokeOpacity=100;strokeWidth=0.8;rounded=1;arcSize=12;edgeStyle=orthogonalEdgeStyle;startArrow=none;endArrow=block;endFill=0;exitX=0.5;exitY=-0.003;exitPerimeter=0;entryX=0.5;entryY=1.002;entryPerimeter=0;lucidId=UiJRUJsIJgSk;" edge="1" parent="WIyWlLk6GJQsqaUBKTNV-1" source="7sSd0tKmP4TyFzPP-oEi-160" target="7sSd0tKmP4TyFzPP-oEi-130">
          <mxGeometry width="100" height="100" relative="1" as="geometry">
            <Array as="points" />
          </mxGeometry>
        </mxCell>
        <mxCell id="7sSd0tKmP4TyFzPP-oEi-170" value="" style="html=1;jettySize=18;whiteSpace=wrap;overflow=block;blockSpacing=1;fontSize=13;strokeColor=#3a414a;strokeOpacity=100;strokeWidth=0.8;rounded=1;arcSize=12;edgeStyle=orthogonalEdgeStyle;startArrow=none;endArrow=block;endFill=0;exitX=0.5;exitY=-0.003;exitPerimeter=0;entryX=0.112;entryY=1.002;entryPerimeter=0;lucidId=vjJRCGfa7-Ud;" edge="1" parent="WIyWlLk6GJQsqaUBKTNV-1" source="7sSd0tKmP4TyFzPP-oEi-164" target="7sSd0tKmP4TyFzPP-oEi-130">
          <mxGeometry width="100" height="100" relative="1" as="geometry">
            <Array as="points" />
          </mxGeometry>
        </mxCell>
        <mxCell id="7sSd0tKmP4TyFzPP-oEi-171" value="Class" style="html=1;overflow=block;blockSpacing=1;swimlane;childLayout=stackLayout;horizontal=1;horizontalStack=0;resizeParent=1;resizeParentMax=0;resizeLast=0;collapsible=0;fontStyle=0;marginBottom=0;swimlaneFillColor=#ffffff;startSize=25;whiteSpace=wrap;fontSize=16.7;align=left;spacing=0;strokeColor=#3a414a;strokeOpacity=100;rounded=1;absoluteArcSize=1;arcSize=9;strokeWidth=0.8;" vertex="1" parent="WIyWlLk6GJQsqaUBKTNV-1">
          <mxGeometry x="-187" y="-2010" width="270" height="227.25" as="geometry" />
        </mxCell>
        <mxCell id="7sSd0tKmP4TyFzPP-oEi-172" value="+ attribute1:type = defaultValue&#xa;+ attribute2:type&#xa;- attribute3:type" style="part=1;html=1;resizeHeight=0;strokeColor=none;fillColor=none;align=left;verticalAlign=middle;spacingLeft=4;spacingRight=4;overflow=hidden;rotatable=0;points=[[0,0.5],[1,0.5]];portConstraint=eastwest;swimlaneFillColor=#ffffff;strokeOpacity=100;whiteSpace=wrap;fontSize=16.7;" vertex="1" parent="7sSd0tKmP4TyFzPP-oEi-171">
          <mxGeometry y="25" width="270" height="92" as="geometry" />
        </mxCell>
        <mxCell id="7sSd0tKmP4TyFzPP-oEi-173" value="" style="line;strokeWidth=1;fillColor=none;align=left;verticalAlign=middle;spacingTop=-1;spacingLeft=3;spacingRight=3;rotatable=0;labelPosition=right;points=[];portConstraint=eastwest;" vertex="1" parent="7sSd0tKmP4TyFzPP-oEi-171">
          <mxGeometry y="117" width="270" height="8" as="geometry" />
        </mxCell>
        <mxCell id="7sSd0tKmP4TyFzPP-oEi-174" value="+ operation1(params):returnType&#xa;- operation2(params)&#xa;- operation3()" style="part=1;html=1;resizeHeight=0;strokeColor=none;fillColor=none;align=left;verticalAlign=middle;spacingLeft=4;spacingRight=4;overflow=hidden;rotatable=0;points=[[0,0.5],[1,0.5]];portConstraint=eastwest;swimlaneFillColor=#ffffff;strokeOpacity=100;whiteSpace=wrap;fontSize=16.7;" vertex="1" parent="7sSd0tKmP4TyFzPP-oEi-171">
          <mxGeometry y="125" width="270" height="102.25" as="geometry" />
        </mxCell>
        <mxCell id="7sSd0tKmP4TyFzPP-oEi-175" value="Class" style="html=1;overflow=block;blockSpacing=1;swimlane;childLayout=stackLayout;horizontal=1;horizontalStack=0;resizeParent=1;resizeParentMax=0;resizeLast=0;collapsible=0;fontStyle=0;marginBottom=0;swimlaneFillColor=#ffffff;startSize=25;whiteSpace=wrap;fontSize=16.7;align=left;spacing=0;strokeColor=#3a414a;strokeOpacity=100;rounded=1;absoluteArcSize=1;arcSize=9;strokeWidth=0.8;" vertex="1" parent="WIyWlLk6GJQsqaUBKTNV-1">
          <mxGeometry x="218" y="-2010" width="270" height="227.25" as="geometry" />
        </mxCell>
        <mxCell id="7sSd0tKmP4TyFzPP-oEi-176" value="+ attribute1:type = defaultValue&#xa;+ attribute2:type&#xa;- attribute3:type" style="part=1;html=1;resizeHeight=0;strokeColor=none;fillColor=none;align=left;verticalAlign=middle;spacingLeft=4;spacingRight=4;overflow=hidden;rotatable=0;points=[[0,0.5],[1,0.5]];portConstraint=eastwest;swimlaneFillColor=#ffffff;strokeOpacity=100;whiteSpace=wrap;fontSize=16.7;" vertex="1" parent="7sSd0tKmP4TyFzPP-oEi-175">
          <mxGeometry y="25" width="270" height="92" as="geometry" />
        </mxCell>
        <mxCell id="7sSd0tKmP4TyFzPP-oEi-177" value="" style="line;strokeWidth=1;fillColor=none;align=left;verticalAlign=middle;spacingTop=-1;spacingLeft=3;spacingRight=3;rotatable=0;labelPosition=right;points=[];portConstraint=eastwest;" vertex="1" parent="7sSd0tKmP4TyFzPP-oEi-175">
          <mxGeometry y="117" width="270" height="8" as="geometry" />
        </mxCell>
        <mxCell id="7sSd0tKmP4TyFzPP-oEi-178" value="+ operation1(params):returnType&#xa;- operation2(params)&#xa;- operation3()" style="part=1;html=1;resizeHeight=0;strokeColor=none;fillColor=none;align=left;verticalAlign=middle;spacingLeft=4;spacingRight=4;overflow=hidden;rotatable=0;points=[[0,0.5],[1,0.5]];portConstraint=eastwest;swimlaneFillColor=#ffffff;strokeOpacity=100;whiteSpace=wrap;fontSize=16.7;" vertex="1" parent="7sSd0tKmP4TyFzPP-oEi-175">
          <mxGeometry y="125" width="270" height="102.25" as="geometry" />
        </mxCell>
      </root>
    </mxGraphModel>
  </diagram>
</mxfile>
